<?xml version="1.0" encoding="utf-8"?>
<!-- Generator: Adobe Illustrator 23.0.0, SVG Export Plug-In . SVG Version: 6.00 Build 0)  -->
<svg version="1.1" id="Camada_1" xmlns="http://www.w3.org/2000/svg" xmlns:xlink="http://www.w3.org/1999/xlink" x="0px" y="0px"
	 viewBox="0 0 400 256" enable-background="new 0 0 400 256" xml:space="preserve">
<g>
	<g>
		<path fill="#E5E9FF" d="M267.48,146.19h57.66c-4.26,0-8.13,1.69-10.92,4.52c-2.8,2.84-4.53,6.18-4.53,10.5
			c0,8.63,6.92,15.06,15.45,15.06h-57.66c4.26,0,8.12-1.22,10.92-4.03c2.79-2.82,4.52-6.41,4.52-10.74
			C282.93,152.86,276.01,146.19,267.48,146.19z"/>
	</g>
	<g>
		<path fill="#E5E9FF" d="M311.49,131.53c0,62-50.26,112.27-112.27,112.27c-62,0-112.27-50.26-112.27-112.27
			c0-62,50.26-112.27,112.27-112.27C261.23,19.26,311.49,69.53,311.49,131.53z"/>
	</g>
	<g>
		<path fill="#E5E9FF" d="M98.76,196.5h58.26c4.75,0,8.6,3.85,8.6,8.6l0,0c0,4.75-3.85,8.6-8.6,8.6H98.76c-4.75,0-8.6-3.85-8.6-8.6
			l0,0C90.15,200.35,94.01,196.5,98.76,196.5z"/>
	</g>
	<g>
		<path fill="#E5E9FF" d="M110.66,230.41h68.27c3.08,0,5.57,2.49,5.57,5.57l0,0c0,3.08-2.5,5.57-5.57,5.57h-68.27
			c-3.08,0-5.57-2.49-5.57-5.57l0,0C105.09,232.91,107.58,230.41,110.66,230.41z"/>
	</g>
	<g>
		<path fill="#E5E9FF" d="M246.53,241.56h15.27c1.74,0,3.15,1.41,3.15,3.15v4.85c0,1.74-1.41,3.15-3.15,3.15h-15.27
			c-1.74,0-3.15-1.41-3.15-3.15v-4.85C243.38,242.97,244.79,241.56,246.53,241.56z"/>
	</g>
	<g>
		<path fill="#E5E9FF" d="M243.78,208.59h50.73c5.05,0,9.14,4.09,9.14,9.14l0,0c0,5.05-4.09,9.15-9.14,9.15h-50.73
			c-5.05,0-9.14-4.09-9.14-9.15l0,0C234.64,212.68,238.73,208.59,243.78,208.59z"/>
	</g>
	<g>
		<path fill="#E5E9FF" d="M118.88,213.58h32.1c-2.37,0-4.53,1.04-6.08,2.61c-1.56,1.57-2.52,3.44-2.52,5.84
			c0,4.8,3.86,8.38,8.61,8.38h-32.1c2.37,0,4.52-0.64,6.08-2.2c1.55-1.57,2.52-3.64,2.52-6.05
			C127.47,217.36,123.63,213.58,118.88,213.58z"/>
	</g>
	<g>
		<path fill="#E5E9FF" d="M244.73,115.36h82.76c8.53,0,15.45,6.92,15.45,15.45l0,0c0,8.53-6.92,15.45-15.45,15.45h-82.76
			c-8.53,0-15.45-6.92-15.45-15.45l0,0C229.28,122.28,236.2,115.36,244.73,115.36z"/>
	</g>
	<g>
		<path fill="#E5E9FF" d="M215.26,176.27h122.63c5.53,0,10.01,4.48,10.01,10.01l0,0c0,5.53-4.48,10.01-10.01,10.01H215.26
			c-5.53,0-10.01-4.48-10.01-10.01l0,0C205.25,180.76,209.73,176.27,215.26,176.27z"/>
	</g>
	<g>
		<path fill="#E5E9FF" d="M175.55,101.93H78.57c-9.06,0-16.4-7.34-16.4-16.4l0,0c0-9.06,7.34-16.4,16.4-16.4h96.98
			c9.06,0,16.4,7.34,16.4,16.4l0,0C191.96,94.59,184.61,101.93,175.55,101.93z"/>
	</g>
	<g>
		<path fill="#E5E9FF" d="M215.95,196.89H75.8c-13.09,0-23.7-10.61-23.7-23.7l0,0c0-13.09,10.61-23.7,23.7-23.7h140.14
			c13.09,0,23.7,10.61,23.7,23.7l0,0C239.65,186.28,229.04,196.89,215.95,196.89z"/>
	</g>
	<g>
		<path fill="#E5E9FF" d="M295.25,64.25h-77.37c-7.23,0-13.09-5.86-13.09-13.08l0,0c0-7.23,5.86-13.09,13.09-13.09h77.37
			c7.23,0,13.09,5.86,13.09,13.09l0,0C308.33,58.39,302.48,64.25,295.25,64.25z"/>
	</g>
	<g>
		<path fill="#E5E9FF" d="M185.83,41.91h-58.81c-6.06,0-10.98-4.91-10.98-10.98l0,0c0-6.06,4.91-10.98,10.98-10.98h58.81
			c6.06,0,10.98,4.91,10.98,10.98l0,0C196.81,37,191.89,41.91,185.83,41.91z"/>
	</g>
	<g>
		<path fill="#E5E9FF" d="M271.45,19.26h-18.37c-3.93,0-7.12-3.19-7.12-7.12l0,0c0-3.93,3.19-7.12,7.12-7.12h18.37
			c3.93,0,7.12,3.19,7.12,7.12l0,0C278.57,16.08,275.38,19.26,271.45,19.26z"/>
	</g>
</g>
<g>
	<g>
		<g>
			<g>
				<g>
					<path fill-rule="evenodd" clip-rule="evenodd" fill="#FFFFFF" d="M258.84,193.74c6.26,0,11.68,3.6,14.29,8.85
						c1.59-0.77,3.38-1.21,5.27-1.21c5.01,0,9.32,3.05,11.16,7.39c1.72-1.55,3.99-2.49,6.48-2.49c5.34,0,9.68,4.33,9.68,9.68
						s-4.33,9.68-9.68,9.68h-37.2c-8.81,0-15.95-7.14-15.95-15.95S250.03,193.74,258.84,193.74z"/>
				</g>
			</g>
		</g>
	</g>
	<g>
		<g>
			<g>
				<g>
					<path fill-rule="evenodd" clip-rule="evenodd" fill="#E5E9FF" d="M269.28,205.86c0.9-1.48,2.21-2.69,3.76-3.44
						c-2.64-5.15-8.01-8.68-14.19-8.68c-0.4,0-0.79,0.02-1.18,0.05C264.13,194.18,268.86,199.52,269.28,205.86z"/>
				</g>
				<g>
					<path fill-rule="evenodd" clip-rule="evenodd" fill="#B9B8F1" d="M296.04,206.28c-0.66,0-1.29,0.07-1.91,0.2
						c0.16-0.01,0.32-0.03,0.49-0.03c8.17,0,8.15,12.68,0,12.68c-6.25,0-7.7-7.41-4.4-10.9c-0.23,0.17-0.44,0.35-0.66,0.54
						c-1.84-4.34-6.15-7.39-11.16-7.39c-0.64,0-1.27,0.05-1.88,0.15c0.09-0.01,0.18-0.02,0.27-0.02c4.76,0,8.78,4.02,8.78,8.78
						c0,4.74-4.03,8.78-8.78,8.78c-4.34,0-8.05-3.34-8.68-7.54c-2.08,4.12-6.58,7.03-11.22,7.03c-6.96,0-12.11-5.69-12.41-12.41
						c-0.09-2.04,0.42-3.99,1.36-5.71c-1.86,2.6-2.95,5.8-2.95,9.24c0,8.81,7.14,15.95,15.95,15.95h37.2c5.34,0,9.68-4.33,9.68-9.68
						S301.39,206.28,296.04,206.28z"/>
				</g>
			</g>
		</g>
	</g>
</g>
<g>
	<g>
		<path fill="#B9B8F1" d="M358.19,120.8l-15,7.05l6.6,0.28l-21.24,20.15l-23.45,8.34c-0.49,0.18-0.8,0.57-1.01,0.82
			c-0.03,0.04-0.06,0.08-0.1,0.11l-17.4,18.9l-23.81-12.05c-0.19-0.09-0.39-0.14-0.6-0.14c-0.68,0.01-1.14,0.52-1.39,0.92
			l-18.46,18.37l2.49,2.43c7.41-7.45,16.32-16.14,17.73-17.83l23.71,11.99c0.22,0.11,0.47,0.17,0.73,0.16
			c0.47-0.01,0.92-0.2,1.21-0.51l18.53-20.12c1.24-0.41,5.19-1.81,18.95-6.72l4.17-1.49c0.77-0.27,1.33-0.86,1.78-1.34
			c0.12-0.13,0.23-0.25,0.35-0.36l20.4-19.36l0.79,6.24L358.19,120.8z"/>
	</g>
</g>
<g>
	<g>
		<g>
			<g>
				
					<rect x="321.54" y="182.44" transform="matrix(0.5987 -0.801 0.801 0.5987 -24.6046 338.122)" fill="#F7B75D" width="7.14" height="22.35"/>
			</g>
		</g>
	</g>
	<g>
		<g>
			<g>
				<path fill="#FFFFFF" d="M256.78,173.35c2.49,17.58,18.34,30.49,36.04,29.42c0.93-0.07,1.87-0.16,2.78-0.29
					c4.66-0.66,9.03-2.22,13.02-4.63c2.45-1.52,4.71-3.31,6.72-5.39c1.03-1.08,2.01-2.23,2.91-3.42c0.87-1.17,1.67-2.38,2.36-3.63
					c3.8-6.63,5.22-14.16,4.14-21.76c-1.3-9.08-6.06-17.1-13.41-22.61c-6.53-4.9-14.58-7.3-22.65-6.81
					c-0.93,0.07-1.86,0.15-2.8,0.29c-9.08,1.3-17.13,6.09-22.63,13.45C257.77,155.29,255.46,164.31,256.78,173.35z M268,151.5
					c4.57-6.11,11.22-10.07,18.73-11.15c0.77-0.1,1.55-0.19,2.32-0.23c6.69-0.41,13.34,1.6,18.74,5.66
					c6.09,4.55,10.03,11.19,11.1,18.69c1.07,7.47-0.84,14.93-5.37,21.01l-0.43,0.55c-4.68,5.85-11.14,9.54-18.33,10.59
					c-0.76,0.1-1.53,0.2-2.29,0.22c-14.65,0.9-27.75-9.77-29.83-24.33C261.58,165.02,263.48,157.56,268,151.5z"/>
			</g>
		</g>
	</g>
	<g>
		<g>
			<g>
				<g>
					
						<rect x="334.89" y="183.94" transform="matrix(0.5985 -0.8011 0.8011 0.5985 -28.3508 357.2155)" fill="#4CE0C0" width="14.66" height="45.91"/>
				</g>
			</g>
		</g>
	</g>
	<g>
		<g>
			<g>
				<path fill="#4CE0C0" d="M375.91,206.03h-26.39c-2.08,0-3.77,1.69-3.77,3.77l0,0c0,2.08,1.69,3.77,3.77,3.77h26.39
					c2.09,0,3.77-1.69,3.77-3.77l0,0C379.68,207.72,377.99,206.03,375.91,206.03z"/>
			</g>
			<g>
				<path fill="#4CE0C0" d="M356.01,195.62h-16.41c-2.08,0-3.77,1.69-3.77,3.77l0,0c0,2.09,1.69,3.77,3.77,3.77h16.41
					c2.08,0,3.77-1.69,3.77-3.77l0,0C359.79,197.31,358.09,195.62,356.01,195.62z"/>
			</g>
			<g>
				<path fill="#4CE0C0" d="M390.59,213.51h-8.29c-1.15,0-2.07,0.93-2.07,2.07l0,0c0,1.15,0.93,2.07,2.07,2.07h8.29
					c1.15,0,2.07-0.93,2.07-2.07l0,0C392.66,214.44,391.73,213.51,390.59,213.51z"/>
			</g>
			<g>
				<path fill="#4CE0C0" d="M356.22,220.79h29.52c1.58,0,2.86,1.28,2.86,2.86c0,1.57-1.28,2.86-2.86,2.86h-29.52V220.79z"/>
			</g>
			<g>
				<path fill="#4CE0C0" d="M371.61,213.51h-14.07c1.04,0,1.99,0.45,2.66,1.13c0.69,0.68,1.11,1.49,1.11,2.53
					c0,2.09-1.69,3.64-3.77,3.64h14.07c-1.04,0-1.98-0.28-2.66-0.96c-0.68-0.68-1.1-1.58-1.1-2.62
					C367.84,215.15,369.53,213.51,371.61,213.51z"/>
			</g>
		</g>
	</g>
</g>
<g>
	<g>
		<g>
			<g>
				<g>
					<path fill="#B9B8F1" d="M192.92,212.3c0-7.44,0-18.22,0-18.22h-20.07h-20.07c0,0,0,10.78,0,18.22
						c0,7.44-27.29,13.46-27.29,13.46h47.36h47.36C220.21,225.76,192.92,219.74,192.92,212.3z"/>
				</g>
			</g>
		</g>
	</g>
	<g>
		<g>
			<g>
				<g>
					<g>
						<path fill="#B9B8F1" d="M192.92,209.92c0-5.81,0-13.92,0-13.92h-40.14c0,0,0,8.11,0,13.92H192.92z"/>
					</g>
				</g>
			</g>
		</g>
	</g>
	<g>
		<g>
			<g>
				<g>
					<g>
						<path fill="#21BFD8" d="M263.68,69.63H82.02c-3.15,0-5.7,2.62-5.7,5.84v115.27h193.06V75.46
							C269.38,72.24,266.83,69.63,263.68,69.63z"/>
					</g>
				</g>
			</g>
		</g>
	</g>
	<g>
		<g>
			<g>
				<g>
					<rect x="85.59" y="78.21" fill="#FFFFFF" width="174.76" height="103.88"/>
				</g>
			</g>
		</g>
	</g>
	<g>
		<g>
			<g>
				<g>
					<g>
						<path fill="#B9B8F1" d="M76.32,189.6v7.48c0,3.23,2.55,5.84,5.7,5.84h181.66c3.15,0,5.7-2.62,5.7-5.84v-7.48H76.32z"/>
					</g>
				</g>
			</g>
		</g>
	</g>
	<g>
		<path fill="#E5E9FF" d="M213.69,114.39c-0.99-0.19-2.01-0.28-3.05-0.28c-1.04,0-2.06,0.09-3.05,0.27
			c-7.97,1.42-14.02,8.37-14.04,16.74c-0.02,8.43,6.08,15.44,14.11,16.84c0.94,0.16,1.91,0.25,2.9,0.26c0.99,0,1.96-0.09,2.9-0.25
			c8.04-1.36,14.17-8.34,14.19-16.77C227.67,122.83,221.65,115.85,213.69,114.39z"/>
	</g>
	<g>
		<g>
			<path fill="#21BFD8" d="M212.8,119.22c-0.71-0.13-1.43-0.2-2.17-0.2c-0.75,0-1.47,0.07-2.18,0.2c-5.67,1.01-9.98,5.96-10,11.92
				c-0.02,6.01,4.33,10.99,10.05,11.99c0.67,0.12,1.36,0.18,2.07,0.19c0.7,0,1.4-0.06,2.07-0.17c5.72-0.97,10.09-5.94,10.1-11.94
				C222.76,125.23,218.47,120.26,212.8,119.22z"/>
		</g>
	</g>
	<g id="XMLID_62_">
		<g>
			<g>
				<g>
					<path fill="#B9B8F1" d="M238.78,142.66l5.16,1.07l2.25-10.89l-5.16-1.06c0.09-4.34-0.75-8.55-2.37-12.41l4.4-2.89l-6.1-9.29
						l-4.4,2.9c-2.28-2.37-4.96-4.4-7.96-5.95c-0.77-0.4-1.58-0.78-2.4-1.11c-0.03-0.01-0.07-0.02-0.1-0.04l1.08-5.16l-10.88-2.25
						l-1.07,5.16c-1.14-0.03-2.27,0.02-3.39,0.11c-3.15,0.28-6.18,1.05-9.02,2.25l-2.9-4.4l-9.28,6.1l2.89,4.4
						c-3.02,2.89-5.46,6.43-7.1,10.45l-5.16-1.07l-2.25,10.89l5.16,1.06c-0.09,4.34,0.74,8.56,2.37,12.41l-4.4,2.89l6.1,9.29
						l4.41-2.89c2.89,3.02,6.43,5.46,10.46,7.1l-1.07,5.16l10.88,2.25l1.06-5.15c1.15,0.02,2.28-0.02,3.4-0.11
						c3.14-0.28,6.18-1.06,9.02-2.25l2.9,4.4l9.28-6.11l-2.89-4.39C234.7,150.22,237.14,146.68,238.78,142.66z M212.64,153.55
						c-2.15,0.2-4.37,0.08-6.59-0.38c-12.15-2.51-19.97-14.4-17.46-26.55c2.06-9.93,10.36-16.96,19.96-17.83
						c2.15-0.2,4.37-0.08,6.59,0.38c1.28,0.27,2.51,0.63,3.69,1.1c0.83,0.32,1.63,0.69,2.4,1.11c8.53,4.58,13.43,14.37,11.36,24.35
						C230.55,145.64,222.25,152.67,212.64,153.55z"/>
				</g>
			</g>
		</g>
	</g>
	<g>
		<g>
			<path fill="#21BFD8" d="M101.15,137.82l7.97-0.78c0.48,2.67,1.45,4.64,2.92,5.9c1.47,1.26,3.44,1.88,5.93,1.88
				c2.64,0,4.63-0.56,5.96-1.68c1.34-1.11,2.01-2.42,2.01-3.91c0-0.96-0.28-1.77-0.84-2.45c-0.56-0.67-1.54-1.26-2.95-1.76
				c-0.96-0.33-3.14-0.92-6.56-1.77c-4.39-1.09-7.47-2.43-9.24-4.01c-2.49-2.23-3.74-4.96-3.74-8.17c0-2.06,0.59-4,1.76-5.8
				c1.17-1.8,2.86-3.17,5.07-4.11c2.2-0.94,4.86-1.41,7.98-1.41c5.09,0,8.92,1.11,11.5,3.35s3.93,5.21,4.06,8.94l-8.19,0.35
				c-0.35-2.08-1.1-3.58-2.26-4.49c-1.15-0.92-2.88-1.37-5.19-1.37c-2.38,0-4.24,0.49-5.59,1.46c-0.87,0.63-1.3,1.47-1.3,2.52
				c0,0.96,0.4,1.78,1.22,2.46c1.03,0.87,3.54,1.77,7.53,2.71c3.99,0.94,6.93,1.91,8.84,2.92c1.91,1,3.4,2.38,4.48,4.12
				c1.08,1.74,1.62,3.9,1.62,6.46c0,2.33-0.65,4.5-1.94,6.53c-1.29,2.03-3.12,3.54-5.48,4.53c-2.36,0.99-5.3,1.48-8.83,1.48
				c-5.13,0-9.07-1.18-11.82-3.55C103.33,145.82,101.69,142.36,101.15,137.82z"/>
		</g>
	</g>
	<g>
		<g>
			<path fill="#21BFD8" d="M141.03,151.02v-40.57h27.29v6.87h-19.1v8.99h17.58v6.83h-17.58v11.04h19.87v6.83H141.03z"/>
		</g>
	</g>
</g>
<g>
	<g>
		<rect x="38.49" y="123.27" fill="#566CD3" width="19.03" height="11.39"/>
	</g>
	<g>
		
			<rect x="72.95" y="139.29" transform="matrix(0.7194 0.6946 -0.6946 0.7194 120.6105 -14.157)" fill="#566CD3" width="9.76" height="5.84"/>
	</g>
	<g>
		
			<rect x="12.48" y="139.29" transform="matrix(-0.7194 0.6946 -0.6946 -0.7194 128.6333 232.4644)" fill="#566CD3" width="9.76" height="5.84"/>
	</g>
	<g>
		<path fill="#F7B75D" d="M12.38,144.32l7.26-7.01c1.16-1.12,1.19-2.96,0.07-4.13l0,0c-1.12-1.16-2.97-1.2-4.13-0.07l-7.27,7.01
			c-1.16,1.12-1.19,2.97-0.07,4.13l0,0C9.37,145.41,11.22,145.44,12.38,144.32z"/>
	</g>
	<g>
		
			<ellipse transform="matrix(0.2281 -0.9736 0.9736 0.2281 -137.5952 185.1938)" fill="#8EDEF2" cx="48" cy="179.38" rx="46.34" ry="46.34"/>
	</g>
	<g>
		<path fill="#FFFFFF" d="M87.86,186.61c2.13-11.92-1.07-24.66-9.81-34.34c-15.01-16.63-40.65-17.94-57.28-2.94
			c-7.42,6.69-11.78,15.5-13.02,24.69c-1.53,11.4,1.77,23.38,10.08,32.6c15.01,16.63,40.65,17.94,57.28,2.94
			C82.06,203.28,86.33,195.16,87.86,186.61z"/>
	</g>
	<g>
		<path fill="#F7B75D" d="M65.86,182.66c0.96-5.35-0.48-11.07-4.4-15.42c-6.74-7.46-18.25-8.05-25.71-1.32
			c-3.33,3-5.29,6.95-5.84,11.08c-0.69,5.12,0.79,10.5,4.53,14.64c6.74,7.46,18.25,8.05,25.71,1.32
			C63.26,190.14,65.17,186.5,65.86,182.66z"/>
	</g>
	<g>
		<path fill="#B9B8F1" d="M88.56,179.45c-0.01-9.35-3.17-17.95-8.49-24.82c-7.42-9.56-19.03-15.72-32.07-15.72
			c-0.07,0-0.13,0.01-0.19,0.01v40.53H88.56z"/>
	</g>
	<g>
		<path fill="#566CD3" d="M64.03,203.46l-13.65-22.63c0.14-0.34,0.22-0.71,0.22-1.1v-0.19c0-1.58-1.28-2.87-2.87-2.87
			c-1.58,0-2.86,1.28-2.86,2.87v0.19c0,1.58,1.28,2.87,2.86,2.87c0.19,0,0.37-0.02,0.54-0.05l13.45,22.29
			c0.38,0.63,1.2,0.85,1.84,0.46C64.2,204.93,64.41,204.1,64.03,203.46z"/>
	</g>
	<g>
		<path fill="#566CD3" d="M49.6,175.45c0-0.02,0.01-0.04,0.01-0.07v-17.17c0-0.87-0.7-1.57-1.57-1.57c-0.87,0-1.57,0.7-1.57,1.57
			v17.17c0,0.03,0.01,0.05,0.01,0.07c-1.64,0.63-2.81,2.22-2.81,4.08c0,2.41,1.96,4.37,4.37,4.37c2.41,0,4.37-1.95,4.37-4.37
			C52.41,177.67,51.24,176.08,49.6,175.45z M48.04,181.77c-1.24,0-2.24-1-2.24-2.24c0-1.24,1-2.24,2.24-2.24
			c1.24,0,2.24,1,2.24,2.24C50.28,180.77,49.28,181.77,48.04,181.77z"/>
	</g>
	<g>
		<path fill="#F7B75D" d="M57.84,125.17H38.16c-3.14,0-5.69-2.55-5.69-5.69l0,0c0-3.14,2.55-5.69,5.69-5.69h19.68
			c3.14,0,5.69,2.54,5.69,5.69l0,0C63.54,122.63,60.99,125.17,57.84,125.17z"/>
	</g>
	<g>
		<path fill="#F7B75D" d="M82.81,144.32l-7.26-7.01c-1.16-1.12-1.19-2.96-0.07-4.13l0,0c1.12-1.16,2.97-1.2,4.13-0.07l7.26,7.01
			c1.16,1.12,1.19,2.97,0.07,4.13l0,0C85.82,145.41,83.97,145.44,82.81,144.32z"/>
	</g>
</g>
<g>
	<g>
		<g>
			<path fill="#8EDEF2" d="M272.67,49.84l1.03-1.04l1.72,1.72c0.34,0.34,0.88,0.63,1.18,0.33l1.52-1.52l-1.17-1.17
				c-0.35-0.34-0.23-0.61,0.07-0.91l1.65-1.65c0.3-0.3,0.59-0.44,0.94-0.1l1.17,1.17l1.31-1.31c0.3-0.3,0.22-1.05-0.12-1.39
				l-1.72-1.73l0.82-0.82c0.3-0.3,0.37-0.81,0.02-1.16l-1.88-1.88c-0.34-0.34-0.85-0.27-1.16,0.03l-0.82,0.82l-1.51-1.52
				c-0.34-0.34-0.94-0.27-1.25,0.03l-1.31,1.31l0.82,0.81c0.34,0.34,0.56,0.99,0.26,1.3l-1.65,1.64c-0.3,0.3-0.92,0.06-1.27-0.28
				l-0.82-0.82L269,43.25c-0.3,0.3-0.16,0.69,0.18,1.03l1.51,1.52l-1.04,1.03c-0.3,0.31-0.34,0.78,0.01,1.12l1.87,1.87
				C271.89,50.17,272.37,50.14,272.67,49.84z"/>
		</g>
	</g>
	<g>
		<g>
			<path fill="#B8B9F1" d="M271.73,37.61l-1.05-1.05l1.76-1.76c0.34-0.34,0.75-0.96,0.44-1.26l-1.6-1.6l-1.27,1.27
				c-0.34,0.34-0.45,0.23-0.75-0.07l-1.65-1.64c-0.3-0.3-0.57-0.56-0.22-0.9l1.27-1.27l-1.27-1.27c-0.3-0.3-1.05-0.03-1.4,0.31
				l-1.76,1.76l-0.92-0.92c-0.3-0.31-0.87-0.51-1.22-0.16l-1.88,1.87c-0.34,0.34-0.23,1,0.07,1.3l0.92,0.92l-1.47,1.46
				c-0.34,0.34-0.31,0.79,0,1.09l1.27,1.27l0.75-0.75c0.34-0.35,1.11-0.6,1.41-0.29l1.65,1.64c0.3,0.31-0.1,0.92-0.44,1.27
				l-0.75,0.75l1.6,1.6c0.3,0.31,0.61,0.21,0.96-0.14l1.46-1.46l1.05,1.05c0.3,0.3,0.83,0.28,1.17-0.06l1.87-1.87
				C272.11,38.35,272.04,37.91,271.73,37.61z"/>
		</g>
	</g>
	<g>
		<g>
			<g>
				<g>
					<path fill="#2747B3" d="M274.47,43.04l0.02,2.15c0,0.13-0.05,0.25-0.14,0.33c-0.09,0.09-0.2,0.14-0.33,0.13l-2.13-0.04
						l0.01-0.91l1.67,0.03l-0.01-1.69L274.47,43.04z"/>
				</g>
			</g>
			<g>
				<g>
					
						<rect x="270.16" y="36.97" transform="matrix(0.7071 -0.7071 0.7071 0.7071 49.7143 203.5959)" fill="#2747B3" width="0.91" height="9.63"/>
				</g>
			</g>
		</g>
		<g>
			<g>
				<g>
					<path fill="#2747B3" d="M268.62,33.82C268.63,33.82,268.63,33.82,268.62,33.82l2.14,0.04l-0.02,0.91l-1.66-0.03l0.01,1.69
						l-0.91,0.01l-0.01-2.16c0-0.12,0.05-0.24,0.13-0.33C268.39,33.87,268.5,33.82,268.62,33.82z"/>
				</g>
			</g>
			<g>
				<g>
					
						<rect x="271.57" y="32.87" transform="matrix(0.7071 -0.7071 0.7071 0.7071 53.0266 203.393)" fill="#2747B3" width="0.91" height="9.63"/>
				</g>
			</g>
		</g>
	</g>
</g>
<g>
	<g>
		<g>
			<path fill="#8EDEF2" d="M171.63,159.86l-2.9,11.13l-9.52,3.97l1.34,3.22l10.32-4.3c0.5-0.21,0.88-0.64,1.02-1.17l3.13-11.96
				c0.24-0.92-0.31-1.87-1.24-2.11l-0.03-0.01C172.82,158.38,171.87,158.93,171.63,159.86z"/>
		</g>
	</g>
	<g>
		<g>
			<path fill="#121F55" d="M165.75,191.7c0.82-0.6,1.07-1.7,0.63-2.58c0,0-0.26-0.52-0.74-1.43c-0.48-0.9-1.15-2.21-2-3.75
				c-0.75-1.37-1.61-2.94-2.55-4.62c1.11,0.25,2.2,0.48,3.25,0.71c1.07,0.22,2.11,0.44,3.1,0.65c0.99,0.2,1.92,0.39,2.78,0.57
				c1.72,0.34,3.16,0.61,4.17,0.8c1.01,0.19,1.58,0.29,1.58,0.29c1.53,0.26,2.97-0.77,3.23-2.29c0.25-1.46-0.69-2.84-2.09-3.19
				c0,0-0.57-0.14-1.57-0.37c-1-0.22-2.43-0.55-4.14-0.92c-0.86-0.19-1.79-0.38-2.77-0.58c-0.99-0.2-2.03-0.41-3.1-0.63
				c-2.15-0.43-4.45-0.87-6.75-1.3l-0.86-0.16l-0.22-0.04l-0.11-0.02l-0.03-0.01l-0.22-0.04h-0.01l-0.05-0.01
				c-0.92-0.11-1.73,0.15-2.37,0.61c-0.64,0.46-1.09,1.11-1.3,1.87c-0.22,0.75-0.13,1.64,0.2,2.32c0.23,0.45,0.21,0.36,0.26,0.45
				l0.12,0.19l0.23,0.36c0.63,0.97,1.24,1.92,1.84,2.84c1.2,1.84,2.33,3.54,3.32,5c0.98,1.46,1.83,2.65,2.4,3.5
				c0.58,0.85,0.93,1.32,0.93,1.32C163.55,192.16,164.83,192.37,165.75,191.7z"/>
		</g>
	</g>
	<g id="_x38_._Right_shoe_24_">
		<g>
			<g>
				<path fill="#F7B75D" d="M163.19,191.84c1.26,0.9,3.01,0.6,3.91-0.67c0.89-1.26,0.6-3.01-0.67-3.91c-1.26-0.9-3.01-0.6-3.91,0.67
					C161.63,189.19,161.93,190.95,163.19,191.84z"/>
			</g>
		</g>
		<g>
			<g>
				<path fill="#F7B75D" d="M160.93,199.88l6.14-8.67c0.65-0.92,0.43-2.19-0.48-2.83l0,0c-0.92-0.65-3.76-0.87-4.41,0.04
					l-3.46,10.14c-0.38,1.11,0.79,2.21,1.83,1.65C160.7,200.12,160.83,200.02,160.93,199.88z"/>
			</g>
		</g>
		<g>
			<g>
				<path fill="#FFFFFF" d="M161.58,192.28L161.58,192.28c-0.04-0.29-0.33-0.48-0.61-0.39l-1.03,0.33
					c-0.22,0.07-0.35,0.28-0.32,0.51l0,0c0.04,0.29,0.33,0.48,0.61,0.39l1.03-0.34C161.47,192.73,161.6,192.51,161.58,192.28z"/>
			</g>
		</g>
		<g>
			<g>
				<path fill="#FFFFFF" d="M161.76,193.8L161.76,193.8c-0.04-0.29-0.33-0.49-0.61-0.39l-1.03,0.33c-0.22,0.07-0.35,0.28-0.33,0.51
					l0,0c0.04,0.29,0.33,0.48,0.61,0.39l1.03-0.34C161.66,194.24,161.79,194.02,161.76,193.8z"/>
			</g>
		</g>
		<g>
			<g>
				<path fill="#2747B3" d="M163.84,190.92c0.76,0.53,1.81,0.35,2.34-0.4c0.54-0.75,0.36-1.81-0.4-2.34
					c-0.76-0.53-1.81-0.36-2.34,0.4C162.9,189.34,163.08,190.38,163.84,190.92z"/>
			</g>
		</g>
	</g>
	<g>
		<g>
			<path fill="#F7B75D" d="M176.84,152.7l0.31,2.31l0.51-0.16c0.38-0.13,0.65-0.49,0.65-0.89l0,0c0-0.27,0.12-0.53,0.33-0.71
				l1.3-1.34c0.54-0.56,0.93-1.26,1.05-2.03c0.09-0.57,0.05-1.2-0.32-1.68c-0.51-0.67,1.24-2.51-0.01-4.05
				c-0.56-0.69-1.45-1.21-1.81-1.95c-1.21-2.5-3.04-2.3-4.32-1.4c-1.14,0.8-1.63-0.82-3.86-0.55c-1.74,0.22-2.43,1.46-2.29,2.49
				c0,0-2.96,0.12-2.96,3.43s3.49,3.72,3.49,3.72L176.84,152.7z"/>
		</g>
	</g>
	<g>
		<g>
			<polygon fill="#F99AB6" points="173.25,150.22 173.74,155.81 174.06,159.46 178.34,159.09 177.37,150.17 177.09,147.63 			"/>
		</g>
	</g>
	<g>
		<g>
			<g>
				<path fill="#F99AB6" d="M176.64,153.01v0.89c-0.69,0.88-1.8,1.56-2.91,1.91l-0.25-2.8H176.64z"/>
			</g>
		</g>
	</g>
	<g>
		<g>
			<path fill="#F99AB6" d="M172.08,155.62h-0.69c-1.52,0-3.29-2.94-3.29-4.46c0-1.81,0.15-2.72,0-3.95
				c-0.21-1.67,1.37-3.06,3.06-3.06h3.42c1.29,0,2.33,1.04,2.33,2.33v5.55C176.9,154.02,174.06,155.62,172.08,155.62z"/>
		</g>
	</g>
	<g>
		<g>
			<path fill="#F7B75D" d="M171.66,144.16c0,0-0.31,2.53,3.96,2.37c0,0-0.13,4.99,2.12,5.35l0.4-1.68c0,0,0.93-5.48-1.14-6.4
				C174.92,142.87,171.66,144.16,171.66,144.16z"/>
		</g>
	</g>
	<g>
		<g>
			<path fill="#F99AB6" d="M179.17,156.71c-0.47-0.29-1.04-0.42-1.62-0.33l-1.89,0.29c-0.91,0.14-1.74,0.51-2.43,1.03
				C175.21,158.2,177.57,157.91,179.17,156.71z"/>
		</g>
	</g>
	<g>
		<g>
			<path fill="#8EDEF2" d="M182.16,160.06c-0.16-1.49-1.54-2.92-2.99-3.35c-1.6,1.2-3.96,1.49-5.95,1c-1.56,1.17-2.43,3.14-2.11,5.2
				l2,11.31l10.2-1.39C183.32,172.84,182.52,163.44,182.16,160.06z"/>
		</g>
	</g>
	<g>
		<g>
			<path fill="#121F55" d="M144.43,192.46c0,0,0.39-0.44,1.09-1.19c0.71-0.75,1.7-1.84,2.92-3.11c1.22-1.28,7.94-8.08,7.94-8.08
				l0.15-0.14c0.1-0.09,0.21-0.17,0.32-0.26c0.22-0.16,0.44-0.32,0.69-0.45c0.47-0.27,0.99-0.48,1.53-0.6
				c0.13-0.03,0.27-0.06,0.4-0.08c0.06-0.02,11.46-1.08,12.44-1.32c1.73-0.42,1.09-3.67,1.09-3.67l10.25-1.57
				c0.07,1.47,1.02,2.89,1.28,3.85c0.41,1.53,0.16,3.08-0.57,4.35c-0.73,1.27-1.95,2.27-3.48,2.68c-0.75,0.2-1.5,0.24-2.23,0.15
				c-0.28,0.02-0.69,0.06-1.23,0.1c-1.03,0.08-2.49,0.2-4.25,0.32c-0.88,0.05-1.83,0.11-2.84,0.18c-1.01,0.06-2.07,0.12-3.17,0.19
				c-1.1,0.05-2.24,0.11-3.39,0.17c-1,0.04-2.01,0.09-3.03,0.14c-0.04,0-0.07,0.01-0.11,0.02c-0.02,0.01-0.04,0.02-0.06,0.03
				l-0.02,0.01c-0.01,0-0.01,0.01-0.01,0.01h-0.01l-0.04,0.03c-0.43,0.39-0.87,0.79-1.29,1.17c-0.86,0.78-1.71,1.53-2.53,2.27
				c-1.64,1.47-3.19,2.82-4.53,3.97c-1.33,1.16-2.46,2.1-3.25,2.77c-0.79,0.66-1.24,1.03-1.24,1.03c-0.77,0.62-1.89,0.62-2.66-0.07
				C143.75,194.6,143.68,193.3,144.43,192.46z"/>
		</g>
	</g>
	<g id="_x38_._Right_shoe_23_">
		<g>
			<g>
				<path fill="#F7B75D" d="M142.78,193.73c-0.49,1.47,0.31,3.06,1.78,3.54c1.47,0.49,3.05-0.31,3.54-1.77
					c0.49-1.47-0.31-3.06-1.78-3.54C144.86,191.46,143.27,192.26,142.78,193.73z"/>
			</g>
		</g>
		<g>
			<g>
				<path fill="#F7B75D" d="M134.43,193.92l10.08,3.35c1.07,0.35,2.22-0.22,2.57-1.29l0,0c0.35-1.06-0.26-3.85-1.33-4.2l-10.71-0.35
					c-1.18-0.04-1.88,1.4-1.04,2.23C134.13,193.77,134.27,193.86,134.43,193.92z"/>
			</g>
		</g>
		<g>
			<g>
				<path fill="#FFFFFF" d="M142.26,192.93L142.26,192.93c0.3,0,0.52-0.27,0.46-0.56l-0.2-1.06c-0.04-0.22-0.24-0.38-0.46-0.38l0,0
					c-0.3,0-0.52,0.27-0.46,0.56l0.2,1.07C141.84,192.77,142.03,192.93,142.26,192.93z"/>
			</g>
		</g>
		<g>
			<g>
				<path fill="#FFFFFF" d="M140.74,192.93L140.74,192.93c0.29,0,0.52-0.27,0.46-0.56l-0.2-1.06c-0.04-0.22-0.24-0.38-0.46-0.38l0,0
					c-0.3,0-0.52,0.27-0.46,0.56l0.2,1.07C140.31,192.77,140.51,192.93,140.74,192.93z"/>
			</g>
		</g>
		<g>
			<g>
				<path fill="#2747B3" d="M143.85,194.08c-0.29,0.88,0.19,1.83,1.07,2.12c0.88,0.29,1.83-0.18,2.13-1.06
					c0.29-0.88-0.19-1.83-1.07-2.12C145.09,192.73,144.14,193.21,143.85,194.08z"/>
			</g>
		</g>
	</g>
	<g>
		<g>
			<path fill="#FFFEFF" d="M172.98,152.9c-0.14,0.73-0.78,1.28-1.55,1.28c-0.77,0-1.41-0.55-1.55-1.28H172.98z"/>
		</g>
	</g>
	<g>
		<g>
			<path fill="#F99AB6" d="M153.37,173.21c0.73-0.11,1.36-0.49,1.8-1l-0.71-4.51c-0.58-0.36-1.29-0.52-2.03-0.4
				c-1.63,0.26-2.75,1.79-2.5,3.42C150.21,172.35,151.74,173.47,153.37,173.21z"/>
		</g>
	</g>
	<g>
		<g>
			<path fill="#8EDEF2" d="M181.86,173.49c0.41-0.14,0.76-0.43,0.97-0.81c0.23-0.42,0.28-0.91,0.14-1.35l-3.93-12.76l-3.34,1.03
				l3.4,11.03l-8.26,2.25l0.92,3.37l10-2.72C181.79,173.51,181.82,173.5,181.86,173.49z"/>
		</g>
	</g>
	<g>
		<g>
			
				<rect x="180.92" y="160.08" transform="matrix(0.9622 -0.2723 0.2723 0.9622 -38.2142 55.5957)" fill="#61C8E0" width="0.5" height="10.77"/>
		</g>
	</g>
	<g>
		<g>
			<polygon fill="#61C8E0" points="178.28,167.56 176.56,161.44 175.96,161.52 177.68,167.64 			"/>
		</g>
	</g>
	<g>
		<g>
			<path fill="#F99AB6" d="M166.65,174.24c-0.1,0.73,0.08,1.44,0.45,2.01l4.53,0.61c0.51-0.46,0.87-1.09,0.96-1.83
				c0.22-1.64-0.93-3.15-2.57-3.37S166.86,172.6,166.65,174.24z"/>
		</g>
	</g>
	<g>
		<g>
			<path fill="#121F55" d="M174.73,176.5c0-0.42-0.34-0.75-0.75-0.75h-27.07c-0.57,0-1.03,0.33-1.03,0.74
				c0,0.41,0.46,0.75,1.03,0.75h27.07C174.4,177.24,174.73,176.91,174.73,176.5L174.73,176.5z"/>
		</g>
		<g>
			<path fill="#FFFFFF" d="M175.8,176.5c0,0.41-0.36,0.75-0.81,0.75h-10.28c-0.44,0-0.8-0.33-0.8-0.75c0-0.41,0.36-0.74,0.8-0.74
				h10.28C175.43,175.75,175.8,176.09,175.8,176.5z"/>
		</g>
		<g>
			<path fill="#FFFFFF" d="M145.92,161.74v13.65c0,0.61,0.49,1.1,1.1,1.1h18.01c0.61,0,1.1-0.49,1.1-1.1v-13.65
				c0-0.61-0.49-1.1-1.1-1.1h-18.01C146.41,160.64,145.92,161.13,145.92,161.74z"/>
		</g>
		<g>
			<path fill="#2143AF" d="M145.08,161.74v13.65c0,0.61,0.49,1.1,1.1,1.1h18.01c0.61,0,1.1-0.49,1.1-1.1v-13.65
				c0-0.61-0.49-1.1-1.1-1.1h-18.01C145.57,160.64,145.08,161.13,145.08,161.74z"/>
		</g>
		<g>
			<path fill="#FFFFFF" d="M158.16,168.57L158.16,168.57c0-0.64-0.52-1.16-1.16-1.16h-3.62c-0.64,0-1.16,0.52-1.16,1.16l0,0
				c0,0.64,0.52,1.16,1.16,1.16H157C157.64,169.73,158.16,169.21,158.16,168.57z"/>
		</g>
	</g>
</g>
<g>
	<g id="_x38_._Right_shoe_22_">
		<g>
			<g>
				<path fill="#F7B75D" d="M258.11,215.87c-0.46,1.63,0.48,3.32,2.1,3.79c1.63,0.46,3.32-0.48,3.79-2.11
					c0.46-1.63-0.48-3.32-2.1-3.78C260.27,213.31,258.57,214.25,258.11,215.87z"/>
			</g>
		</g>
		<g>
			<g>
				<path fill="#F7B75D" d="M249,216.46l11.16,3.19c1.18,0.33,2.41-0.35,2.75-1.53l0,0c0.34-1.18-0.46-4.2-1.64-4.53l-11.71,0.1
					c-1.29,0.01-1.99,1.62-1.03,2.49C248.66,216.31,248.82,216.41,249,216.46z"/>
			</g>
		</g>
		<g>
			<g>
				<path fill="#FFFFFF" d="M257.5,215.03L257.5,215.03c0.32-0.02,0.56-0.32,0.48-0.63l-0.27-1.16c-0.06-0.24-0.28-0.4-0.53-0.4l0,0
					c-0.32,0.02-0.55,0.32-0.48,0.64l0.28,1.15C257.03,214.87,257.25,215.04,257.5,215.03z"/>
			</g>
		</g>
		<g>
			<g>
				<path fill="#FFFFFF" d="M255.84,215.1L255.84,215.1c0.32-0.02,0.55-0.32,0.48-0.63l-0.27-1.16c-0.06-0.24-0.28-0.4-0.52-0.4l0,0
					c-0.32,0.02-0.56,0.32-0.48,0.64l0.27,1.15C255.37,214.94,255.59,215.11,255.84,215.1z"/>
			</g>
		</g>
	</g>
	<g>
		<g>
			<path fill="#8EDEF2" d="M264.42,195.02l0.06-0.03l16.74-9.87l5.01,5.43l-17.56,9.31l-4.12,17.93l-0.13-0.02l-4.71-4.26
				l3.18-16.43C263.07,196.23,263.6,195.45,264.42,195.02z"/>
		</g>
	</g>
	<g id="_x38_._Right_shoe_21_">
		<g>
			<g>
				<path fill="#F7B75D" d="M298.12,222.52c0,1.52,1.24,2.75,2.76,2.75c1.52-0.01,2.75-1.24,2.75-2.76c0-1.52-1.24-2.75-2.76-2.75
					C299.35,219.75,298.12,220.99,298.12,222.52z"/>
			</g>
		</g>
		<g>
			<g>
				<path fill="#F7B75D" d="M290.39,225.28l10.44-0.02c1.1,0,2-0.9,1.99-2l0,0c0-1.1-1.44-3.51-2.55-3.5l-10.09,3
					c-1.11,0.33-1.32,1.89-0.28,2.41C290.06,225.24,290.23,225.29,290.39,225.28z"/>
			</g>
		</g>
		<g>
			<g>
				<path fill="#FFFFFF" d="M297.38,221.93L297.38,221.93c0.28-0.09,0.4-0.42,0.26-0.67l-0.52-0.93c-0.11-0.19-0.34-0.28-0.55-0.21
					l0,0c-0.28,0.09-0.4,0.42-0.26,0.67l0.52,0.93C296.94,221.91,297.17,222,297.38,221.93z"/>
			</g>
		</g>
		<g>
			<g>
				<path fill="#FFFFFF" d="M295.96,222.41L295.96,222.41c0.28-0.09,0.4-0.42,0.26-0.67l-0.52-0.93c-0.11-0.19-0.34-0.28-0.55-0.21
					l0,0c-0.28,0.09-0.4,0.42-0.26,0.67l0.52,0.93C295.52,222.39,295.75,222.48,295.96,222.41z"/>
			</g>
		</g>
	</g>
	<g>
		<g>
			<path fill="#8EDEF2" d="M278.8,182.66l11.1-1.21c0.69,0.78,1.52,3.2,1.77,4.29c0.39,1.74,0.04,3.48-0.84,4.87
				c-0.88,1.4-2.3,2.46-4.04,2.86c-0.85,0.2-5.06,0.26-7.04-1.67C276.85,188.98,278.8,182.66,278.8,182.66z"/>
		</g>
	</g>
	<g>
		<g>
			<path fill="#8EDEF2" d="M285.72,188.6h7.15l-2.75,16.99l12.06,14.05l-6.26,1.76l-11.51-12.91c-0.56-0.64-0.86-1.53-0.71-2.43
				L285.72,188.6z"/>
		</g>
	</g>
	<g>
		<g>
			<path fill="#121F55" d="M256.53,181.37l16.54-0.29c0.73-0.01,1.4-0.43,1.72-1.08l6.49-12.89l-3.52-1.77l-5.95,11.84l-15.36,0.27
				L256.53,181.37z"/>
		</g>
	</g>
	<g>
		<g>
			<polygon fill="#F99AB6" points="280.15,155.13 280.65,165.58 285.49,165.35 284.79,155.27 284.59,152.39 			"/>
		</g>
	</g>
	<g>
		<g>
			<g>
				<path fill="#F99AB6" d="M283.85,158.43c0,0-1.1,2.69-3.38,3.36l-0.17-3.5L283.85,158.43z"/>
			</g>
		</g>
	</g>
	<g>
		<g>
			<path fill="#F99AB6" d="M278.57,161.32c-0.19-0.03-0.56-0.14-0.75-0.19c-1.8-0.5-3.58-3.46-3.51-5.17
				c0.08-2.04,0.3-3.06,0.18-4.44c-0.16-1.89,1.68-3.38,3.58-3.3l3.85,0.15c1.45,0.06,2.58,1.28,2.52,2.73l-0.25,6.24
				C284.09,159.57,280.77,161.67,278.57,161.32z"/>
		</g>
	</g>
	<g>
		<g>
			<path fill="#F99AB6" d="M286.52,162.71c-0.51-0.34-1.15-0.52-1.81-0.44l-2.14,0.25c-1.04,0.12-1.98,0.49-2.78,1.05
				C282,164.21,284.67,163.99,286.52,162.71z"/>
		</g>
	</g>
	<g>
		<g>
			<path fill="#121F55" d="M289.85,166.82c-0.1-1.68-1.59-3.95-3.42-4.17c-3.1,0.44-5.89,0.61-6.94,0.85
				c-1.8,1.26-2.88,3.43-2.61,5.76l0.27,19.32c5.8,4.09,16.43,2.45,16.43,2.45C293.59,182.69,290.04,170.12,289.85,166.82z"/>
		</g>
	</g>
	<g>
		<g>
			<path fill="#121F55" d="M268.16,181.26l13.51,0.15c0.98,0.01,1.82-0.7,1.97-1.68l2.22-14.87l-3.89-0.58L280,177.46l-11.8-0.13
				L268.16,181.26z"/>
		</g>
	</g>
	<g>
		<g>
			<path fill="#F7B75D" d="M280.04,163.4c0.88-0.21,2.46-0.27,4.95-0.57c-1.39,3.25-5.13,5.96-6.23,9.77
				C278.18,171.97,278.23,164.65,280.04,163.4z"/>
		</g>
	</g>
	<g>
		<g>
			<path fill="#2747B3" d="M280.19,163.99c0.16-0.18,0.68-0.55,0.69-0.74c0.4-0.05,0.34,0.1,0.89,0.05
				c-1.51,1.4-0.64,3.71-1.24,5.82c-0.76,1.08-1.42,2.21-1.78,3.47c-0.32-0.35-0.44-2.76-0.19-5.04
				C278.6,167.31,278.96,165.4,280.19,163.99z"/>
		</g>
	</g>
	<g>
		<path fill="#B8B9F1" d="M280.02,164.35c0.19,0.25,1,0.37,1.26,0.19c0.24-0.17,0.49-1.12,0.49-1.12l-1.88-0.28
			C279.88,163.14,279.83,164.11,280.02,164.35z"/>
	</g>
	<g>
		<g>
			<path fill="#121F55" d="M276.69,152.01c-7.45-1.63-2.09-6.36-2.09-6.36s0.15,1.76,1.59,1.18c2.76-1.11,8.77-1.8,10.42,1.81
				c1.29,2.81-1.11,8.96-1.56,10.56c-0.75-0.46-0.12-7.7-3.17-7.4C280.22,151.97,278.32,152.37,276.69,152.01z"/>
		</g>
	</g>
	<g>
		<g>
			<path fill="#FFFEFF" d="M277.82,159.76c-1.52-0.07-0.54-2.59,0.04-2.55C278.44,157.24,279.35,159.83,277.82,159.76z"/>
		</g>
	</g>
	<g>
		<polygon fill="#FFFFFF" points="282.71,165.21 286.5,162.7 285.21,161.29 280.72,163.29 		"/>
	</g>
	<g>
		<polygon fill="#FFFFFF" points="279.57,164.24 279.79,163.4 280.51,162.65 280.82,163.29 		"/>
	</g>
	<g>
		<g>
			<path fill="#566CD3" d="M282.98,176.68c0-0.46-0.37-0.83-0.83-0.83h-30.2c-0.63,0-1.15,0.37-1.15,0.83
				c0,0.46,0.52,0.84,1.15,0.84h30.2C282.6,177.52,282.98,177.15,282.98,176.68L282.98,176.68z"/>
		</g>
		<g>
			<path fill="#2143AF" d="M284.16,176.68c0,0.46-0.4,0.84-0.9,0.84H271.8c-0.49,0-0.9-0.37-0.9-0.84c0-0.46,0.4-0.83,0.9-0.83
				h11.47C283.76,175.85,284.16,176.22,284.16,176.68z"/>
		</g>
		<g>
			<path fill="#566CD3" d="M250.85,160.23v15.23c0,0.68,0.55,1.23,1.23,1.23h20.09c0.68,0,1.23-0.55,1.23-1.23v-15.23
				c0-0.68-0.55-1.23-1.23-1.23h-20.09C251.4,159,250.85,159.55,250.85,160.23z"/>
		</g>
		<g>
			<path fill="#E5E9FF" d="M249.91,160.23v15.23c0,0.68,0.55,1.23,1.23,1.23h20.09c0.68,0,1.23-0.55,1.23-1.23v-15.23
				c0-0.68-0.55-1.23-1.23-1.23h-20.09C250.46,159,249.91,159.55,249.91,160.23z"/>
		</g>
		<g>
			<path fill="#566CD3" d="M264.49,167.84L264.49,167.84c0-0.71-0.58-1.29-1.29-1.29h-4.04c-0.72,0-1.29,0.58-1.29,1.29l0,0
				c0,0.72,0.58,1.29,1.29,1.29h4.04C263.92,169.13,264.49,168.55,264.49,167.84z"/>
		</g>
	</g>
	<g>
		<g>
			<path fill="#F99AB6" d="M269.43,179.3c0.14-0.82-0.04-1.62-0.43-2.29l-5.08-0.86c-0.59,0.5-1.02,1.2-1.15,2.02
				c-0.31,1.84,0.93,3.58,2.77,3.89C267.38,182.37,269.12,181.13,269.43,179.3z"/>
		</g>
	</g>
	<g>
		<g>
			<path fill="#F99AB6" d="M258.71,178.35c0.07-0.83-0.17-1.61-0.62-2.24l-5.13-0.43c-0.55,0.54-0.91,1.28-0.98,2.11
				c-0.15,1.86,1.23,3.49,3.09,3.65C256.93,181.59,258.56,180.21,258.71,178.35z"/>
		</g>
	</g>
</g>
<g>
	<g>
		<path fill-rule="evenodd" clip-rule="evenodd" fill="#B9B8F1" d="M194.17,8.33c-4.13,0-8.63,3.2-8.63,8.53
			c0,8.12,8.65,16.69,8.65,16.69s8.65-8.72,8.65-16.69C202.84,11.53,198.07,8.33,194.17,8.33z M198.47,16.56
			c0,2.3-1.87,4.17-4.17,4.17c-2.3,0-4.17-1.87-4.17-4.17c0-2.3,1.87-4.18,4.17-4.18C196.61,12.38,198.47,14.25,198.47,16.56z"/>
	</g>
</g>
<g>
	<g>
		<g>
			<g>
				<path fill="#F7B75D" d="M108.93,65.86c-0.67,0-1.33-0.31-1.76-0.89l-7.52-10.28c-0.58-0.8-0.55-1.9,0.08-2.66l9.82-11.93
					c0.76-0.93,2.13-1.06,3.06-0.29c0.93,0.76,1.06,2.13,0.29,3.05l-8.75,10.63l6.52,8.93c0.71,0.97,0.49,2.33-0.47,3.04
					C109.82,65.73,109.37,65.86,108.93,65.86z"/>
			</g>
		</g>
	</g>
	<g>
		<g>
			<g>
				<path fill="#F7B75D" d="M123.36,65.85c-0.44,0-0.9-0.14-1.28-0.42c-0.97-0.71-1.18-2.07-0.47-3.04l6.55-8.95l-8.72-10.6
					c-0.76-0.93-0.63-2.3,0.3-3.06c0.93-0.76,2.3-0.63,3.06,0.29l9.79,11.91c0.63,0.76,0.66,1.86,0.08,2.66l-7.55,10.31
					C124.68,65.53,124.02,65.85,123.36,65.85z"/>
			</g>
		</g>
	</g>
	<g>
		<g>
			<g>
				<path fill="#566CD3" d="M122.63,27.81c0,3.46-2.81,6.27-6.26,6.27c-3.46,0-6.27-2.81-6.27-6.27s2.81-6.27,6.27-6.27
					C119.82,21.55,122.63,24.35,122.63,27.81z"/>
			</g>
		</g>
	</g>
	<g>
		<g>
			<g>
				<polygon fill="#F99AB6" points="118.66,34.49 118.64,40.45 118.63,44.34 114.06,44.34 114.29,34.81 114.36,32.1 				"/>
			</g>
		</g>
	</g>
	<g>
		<g>
			<g>
				<path fill="#F7B75D" d="M109.57,43.83c0.02-1.86,1.62-3.66,3.29-4.53c2.49-1.29,6.34-0.39,7.56,0.34
					c2.09,1.24,3.33,3.76,3.18,6.35l0.14,13.89h-14.75C108.98,59.88,109.54,48.05,109.57,43.83z"/>
			</g>
		</g>
	</g>
	<g>
		<path fill="#E5E9FF" d="M116.58,48.02c1.08-3.34,2.27-5.66,3.34-8.63c-3.28-1.23-6.46-0.55-7.13,0c1.07,2.96,2.26,5.3,3.34,8.63
			c0.05,0.24,0.22,0.63,0.22,0.62c0.01,0.01,0.01,0.02,0.01,0.02C116.38,48.63,116.53,48.26,116.58,48.02z"/>
	</g>
	<g>
		<polygon fill="#2747B3" points="116.75,39.64 116.36,39.64 115.97,39.64 115.23,44.14 115.75,46.88 116.36,48.64 116.97,46.88 
			117.49,44.14 		"/>
	</g>
	<g>
		<g>
			<g>
				<path fill="#F99AB6" d="M117.55,23.02h-2.38c-2.1,0-4.06,1.72-3.8,3.81c0.19,1.52,0,2.65,0,4.91c0,1.89,2.21,5.55,4.1,5.55h1.78
					c1.89,0,4.1-3.66,4.1-5.55c0-2.25-0.19-3.39,0-4.91C121.61,24.74,119.65,23.02,117.55,23.02z"/>
			</g>
		</g>
	</g>
	<g>
		<g>
			<g>
				<path fill="#FFFEFF" d="M114.44,34.08c0.17,0.91,0.97,1.59,1.92,1.59c0.96,0,1.76-0.69,1.93-1.59H114.44z"/>
			</g>
		</g>
	</g>
	<g>
		<g>
			<g>
				<path fill="#121F55" d="M118.73,73.17h-4.74c-3.41,0-5.96-3.12-5.29-6.45l0.29-6.83h14.75l0.29,6.83
					C124.69,70.05,122.14,73.17,118.73,73.17z"/>
			</g>
		</g>
	</g>
	<g>
		<g>
			<g>
				<g>
					<path fill="#2747B3" d="M126.05,68.45h-18.7c-0.81,0-1.47-0.65-1.47-1.47V56.53c0-0.81,0.66-1.47,1.47-1.47h18.7
						c0.81,0,1.47,0.66,1.47,1.47v10.45C127.52,67.79,126.86,68.45,126.05,68.45z"/>
				</g>
			</g>
		</g>
		<g>
			<g>
				<g>
					<path fill="#FFFFFF" d="M126.05,69.07h-18.7c-0.81,0-1.47-0.66-1.47-1.47V57.15c0-0.81,0.66-1.47,1.47-1.47h18.7
						c0.81,0,1.47,0.66,1.47,1.47V67.6C127.52,68.41,126.86,69.07,126.05,69.07z"/>
				</g>
			</g>
		</g>
		<g>
			<g>
				<g>
					<path fill="#2747B3" d="M118.85,63.49h-4.32c-0.61,0-1.1-0.49-1.1-1.1v-0.02c0-0.61,0.49-1.1,1.1-1.1h4.32
						c0.61,0,1.11,0.49,1.11,1.1v0.02C119.96,63,119.47,63.49,118.85,63.49z"/>
				</g>
			</g>
		</g>
	</g>
	<g>
		<path fill="#B8B9F1" d="M116.95,39.89c-0.22,0.2-1.02,0.18-1.23-0.04c-0.2-0.21-0.27-1.15-0.27-1.15l1.84,0.05
			C117.28,38.76,117.16,39.7,116.95,39.89z"/>
	</g>
	<g>
		<polygon fill="#FFFFFF" points="114.41,41.06 112.86,39.18 114.15,37.52 116.36,38.72 		"/>
	</g>
	<g>
		<polygon fill="#FFFFFF" points="118.31,41.06 119.86,39.18 118.57,37.52 116.36,38.72 		"/>
	</g>
	<g>
		<g>
			<g>
				<g>
					<path fill="#F7B75D" d="M118.94,89.37l1.27-4.77l-0.09-0.01c-0.29-0.01-0.5-0.28-0.43-0.56c0.05-0.22,0.25-0.37,0.47-0.36
						l0.3,0.01l0.14-0.53l-0.14-0.01c-0.29-0.01-0.5-0.28-0.43-0.57c0.05-0.21,0.25-0.37,0.47-0.35l0.35,0.01l0.8-3
						c0.04-0.06,0.08-0.11,0.14-0.17c0.05-0.11,0.1-0.22,0.17-0.33c0.79-1.29,2.48-1.7,3.77-0.92c1.3,0.79,1.71,2.48,0.92,3.77
						c-0.01,0.01-0.01,0.02-0.02,0.03c0,0.01-0.01,0.01-0.01,0.02l-5.41,8.88c-0.08,0.14-0.21,0.26-0.35,0.34
						C119.86,91.47,118.64,90.49,118.94,89.37z"/>
				</g>
			</g>
		</g>
		<g id="_x38_._Right_shoe_20_">
			<g>
				<g>
					<g>
						<path fill="#566CD3" d="M122.21,82.35c1.29,0.79,2.98,0.38,3.77-0.92c0.79-1.29,0.38-2.98-0.91-3.77
							c-1.29-0.79-2.98-0.38-3.77,0.92C120.5,79.88,120.91,81.56,122.21,82.35z"/>
					</g>
				</g>
			</g>
			<g>
				<g>
					<g>
						<path fill="#2143AF" d="M120.54,90.36l5.41-8.88c0.57-0.94,0.27-2.16-0.67-2.74l0,0c-0.94-0.57-3.73-0.6-4.3,0.34l-2.7,10.14
							c-0.3,1.11,0.92,2.1,1.9,1.48C120.33,90.61,120.45,90.5,120.54,90.36z"/>
					</g>
				</g>
			</g>
			<g>
				<g>
					<g>
						<path fill="#FFFFFF" d="M121.33,82.68L121.33,82.68c0.07-0.28-0.14-0.56-0.43-0.57l-1.06-0.04c-0.22-0.01-0.42,0.14-0.47,0.36
							l0,0c-0.06,0.28,0.14,0.55,0.43,0.56l1.06,0.04C121.08,83.04,121.28,82.89,121.33,82.68z"/>
					</g>
				</g>
			</g>
			<g>
				<g>
					<g>
						<path fill="#FFFFFF" d="M120.99,84.13L120.99,84.13c0.07-0.28-0.14-0.55-0.43-0.56l-1.06-0.04c-0.22-0.01-0.42,0.14-0.47,0.36
							l0,0c-0.07,0.28,0.14,0.56,0.43,0.56l1.06,0.04C120.75,84.49,120.94,84.35,120.99,84.13z"/>
					</g>
				</g>
			</g>
		</g>
	</g>
	<g>
		<g>
			<g>
				<path fill="#121F55" d="M109.04,65.41l16.45,11.8l-5.17,4.43l-14.8-11.3c-1.35-0.97-1.66-2.84-0.69-4.19l0.04-0.05
					C105.82,64.75,107.7,64.44,109.04,65.41z"/>
			</g>
		</g>
	</g>
	<g>
		<g>
			<g>
				<g>
					<path fill="#F7B75D" d="M117.83,97.04l0.33-4.92l0.09,0.03c0.28,0.08,0.56-0.11,0.59-0.4c0.02-0.22-0.11-0.43-0.33-0.49
						l-0.29-0.09l0.04-0.56l0.14,0.04c0.28,0.08,0.56-0.11,0.59-0.4c0.02-0.22-0.12-0.43-0.33-0.49l-0.34-0.1l0.2-3.1
						c-0.02-0.07-0.04-0.14-0.07-0.2c-0.01-0.13-0.03-0.25-0.05-0.37c-0.33-1.48-1.8-2.41-3.28-2.08c-1.48,0.33-2.41,1.8-2.08,3.28
						c0,0.01,0.01,0.02,0.01,0.03c0,0.01,0,0.01,0,0.02l2.28,10.14c0.04,0.16,0.11,0.31,0.22,0.44
						C116.28,98.74,117.75,98.2,117.83,97.04z"/>
				</g>
			</g>
		</g>
		<g id="_x38_._Right_shoe_19_">
			<g>
				<g>
					<g>
						<path fill="#F7B75D" d="M116.98,89.35c-1.48,0.33-2.95-0.6-3.28-2.08c-0.33-1.48,0.6-2.95,2.08-3.28
							c1.48-0.33,2.95,0.6,3.28,2.07C119.39,87.55,118.46,89.02,116.98,89.35z"/>
					</g>
				</g>
			</g>
			<g>
				<g>
					<g>
						<path fill="#2143AF" d="M115.99,97.47l-2.28-10.15c-0.24-1.07,0.43-2.13,1.51-2.38l0,0c1.07-0.24,3.73,0.63,3.97,1.7
							l-0.7,10.47c-0.08,1.16-1.55,1.7-2.28,0.8C116.11,97.78,116.03,97.63,115.99,97.47z"/>
					</g>
				</g>
			</g>
			<g>
				<g>
					<g>
						<path fill="#FFFFFF" d="M117.71,89.94L117.71,89.94c0.03-0.29,0.31-0.48,0.59-0.4l1.02,0.31c0.21,0.06,0.35,0.27,0.33,0.49
							l0,0c-0.03,0.29-0.31,0.48-0.59,0.4l-1.02-0.3C117.83,90.36,117.69,90.15,117.71,89.94z"/>
					</g>
				</g>
			</g>
			<g>
				<g>
					<g>
						<path fill="#FFFFFF" d="M117.57,91.42L117.57,91.42c0.03-0.29,0.31-0.48,0.59-0.4l1.02,0.31c0.21,0.06,0.35,0.27,0.33,0.49
							l0,0c-0.03,0.29-0.31,0.48-0.59,0.4l-1.02-0.3C117.68,91.85,117.54,91.64,117.57,91.42z"/>
					</g>
				</g>
			</g>
		</g>
	</g>
	<g>
		<g>
			<g>
				<path fill="#121F55" d="M120.95,68.01l-7.79,18.68l6.26,0.75l7.13-17.1c0.64-1.53-0.08-3.29-1.62-3.92l-0.05-0.03
					C123.35,65.75,121.59,66.48,120.95,68.01z"/>
			</g>
		</g>
	</g>
	<g>
		<g>
			<g>
				<path fill="#566CD3" d="M116.08,25.62c3.19-1.81,5.4-0.05,6.35,1.85c-0.5-2.93-3.03-5.17-6.11-5.17c-2.94,0-5.39,2.05-6.04,4.8
					C112.29,27.65,114.09,26.75,116.08,25.62z"/>
			</g>
		</g>
	</g>
</g>
<g>
	<g>
		<g>
			<path fill="#2143AF" d="M45.05,80.49c-1.81-0.01-3.27-2.35-3.26-5.24c0.01-2.88,1.49-5.21,3.3-5.21
				c1.81,0.01,3.27,2.35,3.26,5.24C48.34,78.16,46.86,80.5,45.05,80.49z"/>
		</g>
	</g>
	<g>
		<g>
			<path fill="#2143AF" d="M60.98,82.95c-2.11-1.21-4.45-4.25-3.55-6.92c2.08-6.24-2.78-8.48-5.19-8.94
				c-2.41-0.46-4.53,0.15-5.87,1.22c-2.18,1.75-1.53,4.75-0.31,7.17c-1.32,0.76-1.95,2.4-1.19,3.61c1.65,2.65,0.23,6.22-0.75,8.34
				c-1.58,3.41,0.62,7.64,4.47,9.58c3.84,1.93,8.84,1.73,12.7-0.01c1.92-0.86,3.64-2.11,4.51-3.77
				C67.66,89.65,64.94,85.23,60.98,82.95z"/>
		</g>
	</g>
	<g>
		<g>
			<path fill="#F99AB6" d="M34.53,106.84c-0.92,0.13-1.88,0.21-2.89,0.24c-0.74,0.02-1.35-0.56-1.37-1.3
				c-0.02-0.74,0.56-1.36,1.3-1.38c4.69-0.13,8.21-1.51,10.44-4.11c3.41-3.97,2.76-9.48,2.75-9.54c-0.09-0.74,0.44-1.4,1.16-1.5
				c0.73-0.09,1.4,0.43,1.49,1.16c0.04,0.28,0.79,6.76-3.37,11.62C41.79,104.64,38.6,106.25,34.53,106.84z"/>
		</g>
	</g>
	<g>
		<path fill="#8EDEF2" d="M45.76,88.29c-1.25,0.18-2.14,1.34-1.98,2.58c0.01,0.05,0.57,5.18-2.52,8.78
			c-1.51,1.76-3.71,2.91-6.53,3.43c0.82,1.39,0.95,3.19,0.3,4.66c4.14-0.67,7.42-2.36,9.74-5.07c4.45-5.19,3.64-12.09,3.6-12.38
			C48.21,89.03,47.05,88.13,45.76,88.29z"/>
	</g>
	<g>
		<g>
			<path fill="#F99AB6" d="M46.13,90.56c-0.69-0.35-1.24-1.39-0.42-2.34c0.81-0.94,2.06-1.46,3.39-1.51l0.34-0.01
				c1.18-0.04,2.26,0.47,2.97,1.3C51.84,89.77,47.98,91.27,46.13,90.56z"/>
		</g>
	</g>
	<g>
		<g>
			<path fill="#F99AB6" d="M48.39,84.03l-0.03,1.51l-0.06,2.84l2.18,0.04l0.07-3.63l0.03-1.4C49.92,83.83,49.17,84.06,48.39,84.03z"
				/>
		</g>
	</g>
	<g>
		<g>
			<g>
				<path fill="#F99AB6" d="M48.39,84.39l-0.03,1.51c0.77-0.12,1.71-0.46,2.2-1.03l0.02-1.12C49.92,84.19,49.17,84.42,48.39,84.39z"
					/>
			</g>
		</g>
	</g>
	<g>
		<g>
			<path fill="#F99AB6" d="M48.93,85.17L48.93,85.17c2.06-0.02,3.89-1.03,5.02-2.57c0.79-1.07,1.25-2.39,1.23-3.82l-0.02-2.48
				c-0.02-1.81-0.79-3.43-2.02-4.57c-1.14-1.06-2.68-1.71-4.37-1.69l0,0c-1.12,0.01-2.16,0.31-3.06,0.82
				c-1.93,1.1-3.22,3.19-3.2,5.56l0.02,2.49c0.02,2.29,1.26,4.28,3.09,5.37C46.6,84.85,47.73,85.18,48.93,85.17z"/>
		</g>
	</g>
	<g>
		<g>
			<path fill="#121F55" d="M44.12,105.74c-0.74,3.23,1.29,6.45,4.52,7.18c3.23,0.74,6.45-1.29,7.18-4.52
				c0.74-3.23-1.29-6.45-4.52-7.18C48.07,100.48,44.86,102.51,44.12,105.74z"/>
		</g>
	</g>
	<g>
		<g>
			<path fill="#FFFEFF" d="M48.51,81.88c-0.14,0.79-0.82,1.39-1.65,1.4c-0.83,0.01-1.52-0.58-1.67-1.36L48.51,81.88z"/>
		</g>
	</g>
	<g>
		<g>
			<path fill="#8EDEF2" d="M42.94,91.57c-0.41,1.14,0.73,2.28,1.93,2.41c1.2,0.13,2.27-0.74,2.4-1.93c0.13-1.2-1.65-3.82-2.33-2.82
				C44.31,90.18,43.29,90.6,42.94,91.57z"/>
		</g>
	</g>
	<g>
		<g>
			<path fill="#8EDEF2" d="M52.41,88.01c0.52,0.61,0.85,1.38,0.89,2.24c0,0-0.54,9.86,2.16,14.4l-11.49,0.96l0.31-13.65
				c-0.07-1.45,0.49-2.78,1.43-3.73C45.76,90.42,50.29,87.78,52.41,88.01z"/>
		</g>
	</g>
	<g>
		<g>
			<g>
				<g>
					<path fill="#2143AF" d="M44.67,132.04c-1.06,0.05-1.59,1.05-1.68,1.33c-0.49,1.55-0.32,3.17-1.31,5.79
						c-0.67,1.79-1.35,2.16-1.83,3.61c-0.41,1.25,0.74,1.65,1.87,1.21c0.44-0.17,3.24-0.91,3.29-3.14c0.04-1.63-0.16-2.88,0.36-4.29
						c0.52-1.4,0.96-0.61,1.13-0.18c0.12,0.31,0.49,1.18,0.62,1.45c0.05,0.1,0.16,0.15,0.26,0.1h0.01c0.11-0.04,0.16-0.17,0.11-0.28
						c-0.16-0.32-0.44-1.42-0.55-2.83C46.82,133.1,45.63,131.99,44.67,132.04z"/>
				</g>
			</g>
		</g>
		<g>
			<g>
				<g>
					<path fill="#F99AB6" d="M43.56,139.75c0.58-1.3,1.28-5.32,0.93-6.21c-0.41-1.04-2.58-1.12-2.71-0.18
						c-0.23,1.6,0.43,4.41-0.89,7.42C41.06,141.57,42.88,141.27,43.56,139.75z"/>
				</g>
			</g>
		</g>
	</g>
	<g>
		<g>
			<path fill="#121F55" d="M51.85,112.59l-14.14,6.57l1.34-3.19l5.24,16.98c0.32,1.03-0.26,2.12-1.29,2.44
				c-0.99,0.31-2.03-0.21-2.4-1.16l-6.44-16.57c-0.47-1.22,0.08-2.58,1.24-3.14l0.1-0.05l14.07-6.74c1.33-0.64,2.93-0.07,3.57,1.26
				c0.64,1.33,0.08,2.93-1.26,3.57C51.87,112.58,51.85,112.59,51.85,112.59z"/>
		</g>
	</g>
	<g>
		<g>
			<g>
				<g>
					<path fill="#2143AF" d="M35.17,126.7c-0.96-0.45-1.89,0.19-2.1,0.39c-1.16,1.14-1.76,2.65-3.86,4.51
						c-1.43,1.27-2.2,1.28-3.31,2.34c-0.95,0.92-0.12,1.81,1.09,1.95c0.47,0.05,3.29,0.71,4.38-1.24c0.79-1.43,1.21-2.62,2.32-3.62
						c1.11-1,1.14-0.09,1.08,0.36c-0.04,0.33-0.11,1.28-0.13,1.58c-0.01,0.11,0.07,0.2,0.18,0.21l0.01,0.01
						c0.12,0.01,0.23-0.08,0.23-0.2c0.01-0.35,0.27-1.47,0.83-2.76C36.58,128.64,36.04,127.1,35.17,126.7z"/>
				</g>
			</g>
		</g>
		<g>
			<g>
				<g>
					<path fill="#F99AB6" d="M30.59,133c1.12-0.88,3.61-4.11,3.72-5.06c0.13-1.11-1.75-2.19-2.31-1.42
						c-0.95,1.32-1.67,4.11-4.25,6.15C27.52,133.45,29.28,134.03,30.59,133z"/>
				</g>
			</g>
		</g>
	</g>
	<g>
		<g>
			<path fill="#121F55" d="M50.86,113.02l-15.58-0.78l2.67-2.2l-3.29,17.47c-0.2,1.06-1.22,1.76-2.28,1.56
				c-1.01-0.19-1.69-1.14-1.58-2.15l2.03-17.65c0.15-1.3,1.27-2.25,2.56-2.21l0.11,0.01l15.59,0.61c1.48,0.06,2.63,1.3,2.57,2.78
				c-0.06,1.48-1.3,2.63-2.78,2.57C50.88,113.02,50.86,113.02,50.86,113.02z"/>
		</g>
	</g>
	<g>
		<g>
			<path fill="#F99AB6" d="M51.97,107.07c-0.68,0.11-1.41,0.2-2.19,0.25c-0.74,0.04-1.37-0.51-1.42-1.25
				c-0.05-0.74,0.51-1.37,1.25-1.42c2.48-0.16,5.6-0.76,6.4-2.76c1.26-3.15-3.09-8.88-4.71-10.64c-0.5-0.55-0.47-1.39,0.08-1.89
				c0.54-0.5,1.39-0.46,1.89,0.08c0.76,0.82,7.34,8.18,5.22,13.45C57.61,105.09,55.42,106.49,51.97,107.07z"/>
		</g>
	</g>
	<g>
		<path fill="#8EDEF2" d="M53.99,88.77c-0.53-0.58-1.32-0.85-2.09-0.72c-0.53,0.09-1.01,0.35-1.36,0.76
			c-0.78,0.9-0.69,2.28,0.11,3.16c1.85,2.03,5.43,7.11,4.46,9.54c-0.17,0.43-0.52,0.76-0.96,1.04c-0.83,0.51-1.29,1.45-1.1,2.4
			c0,0.02,0.01,0.03,0.01,0.05c0.28,1.52,1.98,2.37,3.32,1.6c1.45-0.83,2.46-1.95,3.03-3.37C61.69,97.54,55.29,90.18,53.99,88.77z"
			/>
	</g>
	<g>
		<g>
			<path fill="#F99AB6" d="M44.07,105.79c0.07,0.79,0.41,1.49,0.93,2.01l4.89-0.4c0.43-0.59,0.66-1.34,0.59-2.13
				c-0.14-1.77-1.7-3.08-3.47-2.94C45.24,102.47,43.93,104.02,44.07,105.79z"/>
		</g>
	</g>
	<g>
		<g>
			<path fill="#F99AB6" d="M27.42,106.39c0.03,0.79,0.35,1.5,0.84,2.05l4.9-0.2c0.45-0.58,0.71-1.32,0.68-2.11
				c-0.07-1.77-1.57-3.16-3.34-3.08C28.73,103.11,27.35,104.62,27.42,106.39z"/>
		</g>
	</g>
	<g>
		<g>
			<path fill="#2143AF" d="M56.25,75.03c-0.71,2.02-3.89,2.74-7.11,1.61c-3.22-1.12-5.25-3.68-4.54-5.7
				c0.71-2.02,3.89-2.75,7.11-1.62C54.92,70.46,56.96,73.01,56.25,75.03z"/>
		</g>
	</g>
	<g>
		<g>
			<path fill="#121F55" d="M52.87,107.63c0-0.44-0.36-0.8-0.8-0.8H22.91c-0.61,0-1.11,0.36-1.11,0.8s0.5,0.81,1.11,0.81h29.15
				C52.5,108.44,52.87,108.08,52.87,107.63L52.87,107.63z"/>
		</g>
		<g>
			<path fill="#FFFFFF" d="M54.01,107.63c0,0.44-0.39,0.81-0.87,0.81H42.07c-0.48,0-0.87-0.37-0.87-0.81s0.39-0.8,0.87-0.8h11.07
				C53.62,106.83,54.01,107.19,54.01,107.63z"/>
		</g>
		<g>
			<path fill="#FFFFFF" d="M21.85,91.74v14.7c0,0.66,0.53,1.19,1.18,1.19h19.39c0.66,0,1.18-0.53,1.18-1.19v-14.7
				c0-0.65-0.53-1.18-1.18-1.18H23.03C22.38,90.56,21.85,91.09,21.85,91.74z"/>
		</g>
		<g>
			<path fill="#2143AF" d="M20.95,91.74v14.7c0,0.66,0.53,1.19,1.18,1.19h19.39c0.66,0,1.19-0.53,1.19-1.19v-14.7
				c0-0.65-0.53-1.18-1.19-1.18H22.13C21.48,90.56,20.95,91.09,20.95,91.74z"/>
		</g>
		<g>
			<path fill="#FFFFFF" d="M35.02,99.09L35.02,99.09c0-0.69-0.56-1.25-1.25-1.25h-3.9c-0.69,0-1.25,0.56-1.25,1.25l0,0
				c0,0.69,0.56,1.25,1.25,1.25h3.9C34.47,100.34,35.02,99.78,35.02,99.09z"/>
		</g>
	</g>
</g>
<g>
	<g>
		<g>
			<path fill="#B9B8F1" d="M63.18,63.28l5.05,7.26c0.03,0.23,0.15,0.45,0.36,0.6c0.17,0.11,0.36,0.16,0.55,0.15
				c0.19,0.01,0.38-0.03,0.55-0.15c0.2-0.15,0.33-0.36,0.36-0.6l5.05-7.26c0.27-0.39,0.18-0.93-0.22-1.21
				c-0.39-0.27-0.93-0.17-1.2,0.22l-4.54,6.52l-4.54-6.52c-0.27-0.39-0.81-0.49-1.2-0.22C63.01,62.35,62.91,62.89,63.18,63.28z"/>
		</g>
	</g>
	<g>
		<g>
			<path fill="#B9B8F1" d="M63.18,55.51l5.05,7.26c0.03,0.23,0.15,0.45,0.36,0.6c0.17,0.12,0.36,0.16,0.55,0.15
				c0.19,0.01,0.38-0.03,0.55-0.15c0.2-0.14,0.33-0.36,0.36-0.6l5.05-7.26c0.27-0.39,0.18-0.93-0.22-1.2
				c-0.39-0.28-0.93-0.18-1.2,0.21l-4.54,6.53l-4.54-6.53c-0.27-0.39-0.81-0.49-1.2-0.21C63.01,54.58,62.91,55.12,63.18,55.51z"/>
		</g>
	</g>
	<g>
		<g>
			<path fill="#B9B8F1" d="M62.85,47.75L67.89,55c0.03,0.23,0.16,0.45,0.36,0.6c0.17,0.11,0.36,0.16,0.55,0.15
				c0.19,0.01,0.38-0.03,0.55-0.15c0.2-0.14,0.33-0.36,0.36-0.6l5.04-7.26c0.28-0.4,0.17-0.93-0.22-1.21
				c-0.39-0.27-0.93-0.17-1.2,0.22l-4.54,6.53l-4.54-6.53c-0.27-0.39-0.81-0.49-1.2-0.22C62.68,46.82,62.58,47.35,62.85,47.75z"/>
		</g>
	</g>
	<g>
		<g>
			<path fill="#B9B8F1" d="M62.85,39.98l5.04,7.26c0.03,0.23,0.16,0.45,0.36,0.59c0.17,0.11,0.36,0.16,0.55,0.15
				c0.19,0.02,0.38-0.03,0.55-0.15c0.2-0.14,0.33-0.36,0.36-0.59l5.04-7.26c0.28-0.39,0.17-0.93-0.22-1.21
				c-0.39-0.27-0.93-0.17-1.2,0.22l-4.54,6.53l-4.54-6.53c-0.27-0.39-0.81-0.49-1.2-0.22C62.68,39.05,62.58,39.59,62.85,39.98z"/>
		</g>
	</g>
</g>
<g>
	<g>
		<g>
			<path fill="#B9B8F1" d="M288.42,91.21l6.49,9.34c0.04,0.3,0.2,0.58,0.46,0.76c0.22,0.15,0.47,0.21,0.71,0.19
				c0.25,0.02,0.49-0.04,0.71-0.19c0.27-0.19,0.43-0.46,0.46-0.76l6.49-9.34c0.35-0.51,0.23-1.21-0.28-1.56
				c-0.5-0.34-1.2-0.22-1.55,0.28l-5.84,8.4l-5.84-8.4c-0.35-0.51-1.04-0.63-1.55-0.28C288.19,90,288.07,90.7,288.42,91.21z"/>
		</g>
	</g>
	<g>
		<g>
			<path fill="#B9B8F1" d="M288.42,81.21l6.49,9.33c0.04,0.3,0.2,0.58,0.46,0.76c0.22,0.15,0.47,0.21,0.71,0.2
				c0.25,0.01,0.49-0.04,0.71-0.2c0.27-0.19,0.43-0.46,0.46-0.76l6.49-9.33c0.35-0.51,0.23-1.2-0.28-1.55
				c-0.5-0.35-1.2-0.23-1.55,0.28l-5.84,8.4l-5.84-8.4c-0.35-0.51-1.04-0.63-1.55-0.28S288.07,80.71,288.42,81.21z"/>
		</g>
	</g>
	<g>
		<g>
			<path fill="#B9B8F1" d="M287.99,71.22l6.49,9.34c0.04,0.3,0.2,0.58,0.46,0.76c0.22,0.15,0.47,0.21,0.71,0.19
				c0.24,0.02,0.49-0.04,0.71-0.19c0.26-0.19,0.42-0.46,0.46-0.76l6.49-9.34c0.35-0.51,0.22-1.2-0.28-1.55
				c-0.51-0.35-1.2-0.23-1.55,0.28l-5.84,8.4l-5.84-8.4c-0.35-0.51-1.05-0.63-1.55-0.28C287.77,70.02,287.64,70.72,287.99,71.22z"/>
		</g>
	</g>
	<g>
		<g>
			<path fill="#B9B8F1" d="M287.99,61.23l6.49,9.34c0.04,0.3,0.2,0.58,0.46,0.76c0.22,0.15,0.47,0.21,0.71,0.19
				c0.24,0.02,0.49-0.04,0.71-0.19c0.26-0.19,0.42-0.46,0.46-0.76l6.49-9.34c0.35-0.5,0.22-1.2-0.28-1.55
				c-0.51-0.35-1.2-0.22-1.55,0.28l-5.84,8.4l-5.84-8.4c-0.35-0.51-1.05-0.63-1.55-0.28C287.77,60.03,287.64,60.73,287.99,61.23z"/>
		</g>
	</g>
</g>
<g>
	<path fill="#B9B8F1" d="M396.24,229.57H9.63c-1.16,0-2.1-0.94-2.1-2.1c0-1.16,0.94-2.1,2.1-2.1h386.61c1.16,0,2.1,0.94,2.1,2.1
		C398.34,228.63,397.4,229.57,396.24,229.57z"/>
</g>
<g>
	<g>
		<path fill="#B9B8F1" d="M141.65,245.77h-55.9c-1.16,0-2.1-0.94-2.1-2.1c0-1.16,0.94-2.1,2.1-2.1h55.9c1.16,0,2.1,0.94,2.1,2.1
			C143.74,244.83,142.8,245.77,141.65,245.77z"/>
	</g>
	<g>
		<path fill="#B9B8F1" d="M68.97,245.77H55c-1.16,0-2.1-0.94-2.1-2.1c0-1.16,0.94-2.1,2.1-2.1h13.98c1.16,0,2.1,0.94,2.1,2.1
			C71.07,244.83,70.13,245.77,68.97,245.77z"/>
	</g>
</g>
<g>
	<g>
		<g>
			<g>
				<path fill="#2143AF" d="M107.88,235.79c-0.72,0-1.42-0.33-1.88-0.96l-8.02-10.98c-0.62-0.85-0.59-2.02,0.08-2.84l10.49-12.74
					c0.82-0.99,2.28-1.13,3.26-0.32c0.99,0.81,1.13,2.28,0.32,3.26l-9.34,11.34l6.96,9.54c0.75,1.03,0.53,2.48-0.5,3.24
					C108.83,235.64,108.35,235.79,107.88,235.79z"/>
			</g>
		</g>
	</g>
	<g>
		<g>
			<g>
				<path fill="#2143AF" d="M123.28,235.76c-0.47,0-0.95-0.15-1.37-0.45c-1.03-0.76-1.26-2.21-0.5-3.24l6.99-9.55l-9.31-11.32
					c-0.81-0.99-0.67-2.45,0.32-3.26c0.99-0.81,2.45-0.67,3.26,0.32l10.45,12.71c0.67,0.82,0.71,1.99,0.08,2.84l-8.06,11.01
					C124.7,235.44,124,235.76,123.28,235.76z"/>
			</g>
		</g>
	</g>
	<g>
		<g>
			<g>
				<path fill="#121F55" d="M109.47,194.07c0,3.7,2.99,6.69,6.69,6.69c3.69,0,6.69-2.99,6.69-6.69c0-3.69-3-5.37-6.69-5.37
					C112.46,188.7,109.47,190.38,109.47,194.07z"/>
			</g>
		</g>
	</g>
	<g>
		<g>
			<g>
				<polygon fill="#F99AB6" points="113.7,202.29 113.72,208.66 113.73,212.81 118.61,212.8 118.36,202.63 118.29,199.74 				"/>
			</g>
		</g>
	</g>
	<g>
		<g>
			<g>
				<path fill="#2143AF" d="M108.57,212.26c0.02-1.98,1.73-3.9,3.51-4.83c2.66-1.39,6.76-0.42,8.07,0.35
					c2.22,1.33,3.55,4.01,3.4,6.78l0.16,14.83h-15.75C107.94,229.4,108.53,216.77,108.57,212.26z"/>
			</g>
		</g>
	</g>
	<g>
		<g>
			<g>
				<path fill="#F99AB6" d="M119.31,207.41c-1.94-0.82-4.68-1.09-6.89-0.14l1.64,1.64c1.03,1.03,2.71,1.03,3.75,0
					C118.31,208.41,118.81,207.91,119.31,207.41z"/>
			</g>
		</g>
	</g>
	<g>
		<g>
			<g>
				<path fill="#F99AB6" d="M114.89,190.25h2.54c2.24,0,4.34,1.83,4.06,4.06c-0.2,1.62,0,2.83,0,5.24c0,2.01-2.36,5.92-4.38,5.92
					h-1.91c-2.01,0-4.38-3.91-4.38-5.92c0-2.41,0.2-3.62,0-5.24C110.55,192.08,112.64,190.25,114.89,190.25z"/>
			</g>
		</g>
	</g>
	<g>
		<g>
			<g>
				<path fill="#FFFEFF" d="M118.21,201.85c-0.18,0.97-1.03,1.71-2.06,1.71c-1.02,0-1.87-0.74-2.06-1.71H118.21z"/>
			</g>
		</g>
	</g>
	<g>
		<g>
			<g>
				<path fill="#566CD3" d="M118.35,243.59h-5.06c-3.64,0-6.36-3.33-5.65-6.89l0.31-7.29h15.75l0.3,7.29
					C124.71,240.26,121.99,243.59,118.35,243.59z"/>
			</g>
		</g>
	</g>
	<g>
		<g>
			<g>
				<path fill="#566CD3" d="M92.77,235.45l21.51-2.05l0.61,6.44l-21.51,2.05c-1.76,0.17-3.32-1.12-3.49-2.88l-0.01-0.07
					C89.71,237.18,91,235.62,92.77,235.45z"/>
			</g>
		</g>
	</g>
	<g>
		<g>
			<g>
				<path fill="#566CD3" d="M135.7,235.45l-21.51-2.05l-0.61,6.44l21.51,2.05c1.76,0.17,3.32-1.12,3.49-2.88l0.01-0.07
					C138.76,237.18,137.46,235.62,135.7,235.45z"/>
			</g>
		</g>
	</g>
	<g>
		<g>
			<g>
				<path fill="#FFFFFF" d="M124.23,239.82H107.4c-0.87,0-1.57-0.7-1.57-1.57v-11.16c0-0.86,0.7-1.57,1.57-1.57h16.84
					c0.87,0,1.57,0.7,1.57,1.57v11.16C125.8,239.12,125.1,239.82,124.23,239.82z"/>
			</g>
		</g>
	</g>
	<g>
		<g>
			<g>
				<path fill="#B9B8F1" d="M124.23,240.48H107.4c-0.87,0-1.57-0.7-1.57-1.57v-11.16c0-0.87,0.7-1.57,1.57-1.57h16.84
					c0.87,0,1.57,0.7,1.57,1.57v11.16C125.8,239.78,125.1,240.48,124.23,240.48z"/>
			</g>
		</g>
	</g>
	<g>
		<g>
			<g>
				<path fill="#FFFFFF" d="M118.12,234.53h-4.61c-0.65,0-1.18-0.52-1.18-1.18v-0.02c0-0.65,0.53-1.18,1.18-1.18h4.61
					c0.65,0,1.18,0.53,1.18,1.18v0.02C119.3,234,118.78,234.53,118.12,234.53z"/>
			</g>
		</g>
	</g>
	<g>
		<g>
			<g>
				<g>
					<path fill="#FFFFFF" d="M107.34,246.39l6.27-0.38l-0.02,0.11c-0.06,0.37,0.23,0.69,0.6,0.68c0.28-0.01,0.52-0.21,0.56-0.49
						l0.06-0.38l0.71-0.04l-0.03,0.18c-0.06,0.36,0.23,0.69,0.6,0.68c0.28-0.01,0.52-0.22,0.56-0.49l0.07-0.45l3.94-0.23
						c0.08-0.03,0.16-0.07,0.24-0.13c0.15-0.03,0.31-0.08,0.46-0.13c1.81-0.66,2.75-2.66,2.1-4.47c-0.66-1.81-2.66-2.75-4.47-2.1
						c-0.01,0.01-0.02,0.01-0.04,0.02c-0.01,0-0.01,0-0.02,0.01l-12.44,4.5c-0.2,0.07-0.37,0.19-0.52,0.35
						C104.95,244.71,105.87,246.48,107.34,246.39z"/>
				</g>
			</g>
		</g>
		<g id="_x38_._Right_shoe_18_">
			<g>
				<g>
					<g>
						<path fill="#F7B75D" d="M116.92,244.1c-0.66-1.82,0.28-3.82,2.1-4.48c1.81-0.66,3.82,0.28,4.47,2.1
							c0.66,1.82-0.28,3.82-2.1,4.48C119.57,246.85,117.57,245.91,116.92,244.1z"/>
					</g>
				</g>
			</g>
			<g>
				<g>
					<g>
						<path fill="#F7B75D" d="M106.51,244.14l12.44-4.5c1.32-0.47,2.77,0.21,3.24,1.52l0,0c0.48,1.32-0.2,4.8-1.51,5.28l-13.32,0.8
							c-1.47,0.09-2.39-1.69-1.37-2.75C106.14,244.34,106.31,244.22,106.51,244.14z"/>
					</g>
				</g>
			</g>
			<g>
				<g>
					<g>
						<path fill="#FFFFFF" d="M116.29,245.11L116.29,245.11c0.37-0.01,0.66,0.32,0.6,0.68l-0.22,1.34
							c-0.04,0.28-0.28,0.49-0.56,0.49l0,0c-0.37,0.01-0.66-0.32-0.6-0.68l0.22-1.34C115.77,245.32,116.01,245.12,116.29,245.11z"/>
					</g>
				</g>
			</g>
			<g>
				<g>
					<g>
						<path fill="#FFFFFF" d="M114.39,245.16L114.39,245.16c0.37-0.01,0.65,0.32,0.6,0.68l-0.22,1.33
							c-0.05,0.28-0.28,0.49-0.56,0.49l0,0c-0.37,0.01-0.66-0.32-0.6-0.68l0.22-1.33C113.88,245.37,114.11,245.17,114.39,245.16z"/>
					</g>
				</g>
			</g>
		</g>
	</g>
	<g>
		<g>
			<g>
				<path fill="#F99AB6" d="M134.39,236.81l-14.53,3.91c-1.39,0.37-2.22,1.81-1.85,3.21l0.01,0.05c0.38,1.4,1.81,2.22,3.21,1.85
					l14.53-3.91c1.4-0.38,2.22-1.82,1.85-3.21l-0.01-0.05C137.23,237.26,135.79,236.43,134.39,236.81z"/>
			</g>
		</g>
	</g>
	<g>
		<g>
			<g>
				<g>
					<path fill="#FFFFFF" d="M121.13,246.39l-6.27-0.38l0.02,0.11c0.06,0.37-0.23,0.69-0.6,0.68c-0.28-0.01-0.52-0.21-0.56-0.49
						l-0.06-0.38l-0.71-0.04l0.03,0.18c0.06,0.36-0.23,0.69-0.6,0.68c-0.28-0.01-0.52-0.22-0.57-0.49l-0.07-0.45l-3.94-0.23
						c-0.08-0.03-0.16-0.07-0.24-0.13c-0.16-0.03-0.31-0.08-0.46-0.13c-1.81-0.66-2.75-2.66-2.1-4.47c0.66-1.81,2.66-2.75,4.47-2.1
						c0.01,0.01,0.02,0.01,0.04,0.02c0.01,0,0.01,0,0.02,0.01l12.44,4.5c0.2,0.07,0.37,0.19,0.52,0.35
						C123.52,244.71,122.6,246.48,121.13,246.39z"/>
				</g>
			</g>
		</g>
		<g id="_x38_._Right_shoe_17_">
			<g>
				<g>
					<g>
						<path fill="#F7B75D" d="M111.55,244.1c0.66-1.82-0.28-3.82-2.1-4.48c-1.81-0.66-3.82,0.28-4.47,2.1
							c-0.66,1.82,0.28,3.82,2.1,4.48C108.89,246.85,110.9,245.91,111.55,244.1z"/>
					</g>
				</g>
			</g>
			<g>
				<g>
					<g>
						<path fill="#F7B75D" d="M121.96,244.14l-12.44-4.5c-1.32-0.47-2.77,0.21-3.24,1.52l0,0c-0.48,1.32,0.2,4.8,1.51,5.28
							l13.32,0.8c1.47,0.09,2.39-1.69,1.37-2.75C122.33,244.34,122.16,244.22,121.96,244.14z"/>
					</g>
				</g>
			</g>
			<g>
				<g>
					<g>
						<path fill="#FFFFFF" d="M112.18,245.11L112.18,245.11c-0.37-0.01-0.66,0.32-0.6,0.68l0.22,1.34c0.04,0.28,0.28,0.49,0.56,0.49
							l0,0c0.37,0.01,0.66-0.32,0.6-0.68l-0.22-1.34C112.7,245.32,112.46,245.12,112.18,245.11z"/>
					</g>
				</g>
			</g>
			<g>
				<g>
					<g>
						<path fill="#FFFFFF" d="M114.07,245.16L114.07,245.16c-0.37-0.01-0.66,0.32-0.6,0.68l0.22,1.33c0.05,0.28,0.28,0.49,0.57,0.49
							l0,0c0.37,0.01,0.66-0.32,0.6-0.68l-0.22-1.33C114.59,245.37,114.36,245.17,114.07,245.16z"/>
					</g>
				</g>
			</g>
		</g>
	</g>
	<g>
		<g>
			<g>
				<path fill="#F99AB6" d="M94.08,236.81l14.53,3.91c1.4,0.37,2.22,1.81,1.85,3.21l-0.01,0.05c-0.38,1.4-1.81,2.22-3.21,1.85
					l-14.53-3.91c-1.4-0.38-2.22-1.82-1.85-3.21l0.01-0.05C91.24,237.26,92.68,236.43,94.08,236.81z"/>
			</g>
		</g>
	</g>
	<g>
		<g>
			<g>
				<path fill="#121F55" d="M116.56,187.66c6.09,0,5.99,6.53,5.99,6.53c-6.39,1.23-8.84-3.3-8.84-4.19
					C113.7,190.01,114.37,187.66,116.56,187.66z"/>
			</g>
		</g>
	</g>
	<g>
		<g>
			<g>
				<path fill="#121F55" d="M113.39,189.1c-4.87-0.65-3.76,5.74-3.76,5.74c3.21-0.62,5.12-3.24,5-3.82L113.39,189.1z"/>
			</g>
		</g>
	</g>
</g>
<g>
	<g>
		<g>
			<path fill="#FFFFFF" d="M236.7,40.37c0.57-0.83-0.2-2.21,0.28-3.85c1.46-4.95-0.25-7.1-0.25-7.1c0.03-1.82-1.5-3.41-3.78-4.25
				c-1.07-0.39-2.3-0.62-3.62-0.63c-1.99-0.01-3.81,0.48-5.16,1.29c-1.45,0.87-2.5,2.11-2.39,3.49c0.08,0.98,1.13,2.27,0.07,3.91
				c-2.63,4.06-1.49,6.4-0.09,7.13c1.29,0.67,2.77,0.72,3.53,1.16C229.17,43.75,234.68,43.31,236.7,40.37z"/>
		</g>
	</g>
	<g>
		<path fill="#F99AB6" d="M248.86,58.48c0.9-0.1,1.82-0.26,2.77-0.48c0.7-0.16,1.14-0.86,0.97-1.56c-0.16-0.7-0.86-1.14-1.56-0.97
			c-4.44,1.03-8.08,0.59-10.82-1.31c-4.17-2.89-4.91-8.24-4.92-8.29c-0.09-0.71-0.75-1.21-1.46-1.12c-0.71,0.09-1.21,0.74-1.12,1.46
			c0.04,0.26,0.91,6.55,6.02,10.09C241.5,58.2,244.89,58.93,248.86,58.48z"/>
	</g>
	<g>
		<path fill="#4CE0C0" d="M235.93,47.85c0.25,0,0.49,0.03,0.72,0.07c-0.44-1.23-0.57-2.14-0.58-2.16c-0.13-1.02-1.02-1.79-2.05-1.79
			c-0.08,0-0.17,0.01-0.26,0.02c-1.13,0.15-1.92,1.18-1.78,2.31c0.02,0.13,0.23,1.64,1,3.59C233.38,48.75,234.36,47.85,235.93,47.85
			z"/>
	</g>
	<g>
		<g>
			<path fill="#F99AB6" d="M233.48,46.76c0.67-0.34,1.21-1.35,0.41-2.28c-0.78-0.91-2-1.41-3.29-1.46l-0.34-0.01
				c-1.15-0.04-2.19,0.45-2.89,1.27C227.92,45.99,231.67,47.45,233.48,46.76z"/>
		</g>
	</g>
	<g>
		<g>
			<path fill="#F99AB6" d="M231.28,40.41l0.03,1.47l0.05,2.76l-2.12,0.04l-0.07-3.52l-0.03-1.36
				C229.79,40.21,230.52,40.44,231.28,40.41z"/>
		</g>
	</g>
	<g>
		<g>
			<g>
				<path fill="#F99AB6" d="M231.28,40.76l0.03,1.47c-0.75-0.11-1.66-0.44-2.13-1l-0.02-1.09
					C229.79,40.56,230.52,40.79,231.28,40.76z"/>
			</g>
		</g>
	</g>
	<g>
		<g>
			<path fill="#F99AB6" d="M230.75,41.51L230.75,41.51c-2.01-0.02-3.78-1-4.89-2.49c-0.76-1.04-1.21-2.32-1.2-3.71l0.02-2.41
				c0.02-1.76,0.77-3.33,1.96-4.44c1.11-1.04,2.61-1.66,4.24-1.64l0,0c1.08,0.01,2.1,0.3,2.98,0.8c1.88,1.06,3.13,3.09,3.11,5.4
				l-0.02,2.41c-0.02,2.22-1.22,4.16-3,5.22C233.02,41.21,231.92,41.53,230.75,41.51z"/>
		</g>
	</g>
	<g>
		<g>
			<path fill="#F7B75D" d="M237.35,61.5c0.72,3.14-3.17,6.27-6.32,6.98c-3.14,0.71-6.26-1.25-6.98-4.39
				c-0.72-3.14,1.25-6.27,4.39-6.98C231.58,56.4,236.63,58.36,237.35,61.5z"/>
		</g>
	</g>
	<g>
		<g>
			<path fill="#FFFEFF" d="M231.16,38.32c0.14,0.76,0.8,1.35,1.6,1.35c0.81,0.01,1.48-0.56,1.63-1.32L231.16,38.32z"/>
		</g>
	</g>
	<g>
		<g>
			<path fill="#4CE0C0" d="M236.94,48.19c0.4,1.1-0.71,2.44-1.87,2.57c-1.16,0.13-2.58-1.39-2.71-2.55
				c-0.13-1.16,1.6-3.71,2.26-2.74C235.25,46.38,236.6,47.24,236.94,48.19z"/>
		</g>
	</g>
	<g>
		<g>
			<g>
				<path fill="#4CE0C0" d="M227.37,44.28c-0.5,0.59-0.82,1.34-0.86,2.17c0,0,1.89,9.15-2.1,13.99c0,0,7.21,4.32,13,1.4
					c0-4.15-2.53-7.01-2.13-13.73c0.08-1.4-0.47-2.7-1.39-3.63C233.83,46.62,229.44,44.05,227.37,44.28z"/>
			</g>
		</g>
	</g>
	<g>
		<g>
			<g>
				<g>
					<path fill="#2143AF" d="M233.55,90.68c0.14,1.36-0.1,2.46-0.05,2.8c0.09,0.56,2.61,1.07,2.92,2.63
						c0.43,2.13,3.23,2.35,3.68,2.44c1.16,0.23,2.19-0.35,1.58-1.48c-0.71-1.31-1.42-1.55-2.37-3.14c-1.39-2.34-1.5-3.92-2.24-5.32
						c-0.13-0.25-0.81-1.11-1.83-0.98C234.34,87.75,233.39,89.01,233.55,90.68z"/>
				</g>
			</g>
		</g>
		<g>
			<g>
				<g>
					<path fill="#F99AB6" d="M237.64,94.81c-0.78-1.15-2.13-4.88-1.95-5.78c0.21-1.06,2.27-1.51,2.56-0.63
						c0.49,1.5,0.34,4.3,2.12,6.95C240.35,96.13,238.55,96.15,237.64,94.81z"/>
				</g>
			</g>
		</g>
	</g>
	<g>
		<g>
			<g>
				<g>
					<path fill="#2143AF" d="M270.8,72.66c1.01-0.92,2.03-1.39,2.27-1.63c0.39-0.41-0.7-2.73,0.35-3.91c1.45-1.62-0.04-4-0.24-4.42
						c-0.51-1.06-1.6-1.54-2.13-0.38c-0.63,1.35-0.39,2.06-1.1,3.78c-1.04,2.52-2.24,3.55-2.92,4.97c-0.12,0.26-0.41,1.32,0.3,2.05
						C267.98,73.79,269.56,73.79,270.8,72.66z"/>
				</g>
			</g>
		</g>
		<g>
			<g>
				<g>
					<path fill="#F99AB6" d="M271.67,66.92c-0.46,1.32-2.63,4.62-3.47,5.02c-0.98,0.46-2.57-0.92-2.04-1.68
						c0.9-1.29,3.24-2.84,4.3-5.85C271.1,63.96,272.2,65.39,271.67,66.92z"/>
				</g>
			</g>
		</g>
	</g>
	<g>
		<path fill="#F7B75D" d="M243.41,69.91l-0.1-0.05l-13.77-6.32c-1.31-0.6-2.85-0.03-3.45,1.28c-0.6,1.3-0.03,2.85,1.28,3.45
			c0.01,0,0.02,0.01,0.03,0.01l11.85,5.28l-4.19,14.39l3.6,1.19l6-16.19C245.1,71.75,244.55,70.43,243.41,69.91z"/>
	</g>
	<g>
		<path fill="#F99AB6" d="M230.77,62.02c0.67,0,1.39-0.04,2.14-0.12c0.71-0.07,1.23-0.71,1.16-1.42c-0.07-0.72-0.72-1.23-1.42-1.16
			c-2.4,0.25-5.49,0.16-6.58-1.62c-1.72-2.82,1.52-9.01,2.79-10.96c0.39-0.6,0.22-1.41-0.38-1.8c-0.6-0.39-1.41-0.22-1.8,0.38
			c-0.59,0.91-5.71,9.02-2.84,13.73C225.04,61.03,227.37,62.02,230.77,62.02z"/>
	</g>
	<g>
		<g>
			<path fill="#FFFFFF" d="M224,33.56c0,0,4.36,1.56,7.08-0.33c2.72-1.89,3.96-4.82,2.78-6.52c-1.19-1.71-4.36-1.56-7.08,0.33
				C224.05,28.94,224,33.56,224,33.56z"/>
		</g>
	</g>
	<g>
		<path fill="#F7B75D" d="M229.42,62.93c0,0,2.41,0.06,6.02,0.21c1.81,0.09,3.91,0.19,6.17,0.29c2.25,0.13,4.66,0.27,7.07,0.42
			l0.9,0.05l0.23,0.02l0.05,0.01l0.25,0.02l0.11,0.02l0.44,0.07l0.89,0.14l0.05,0.01l0.22,0.04l0.03,0.01l0.11,0.03l0.22,0.05
			l0.43,0.11c1.15,0.28,2.28,0.56,3.38,0.84c1.1,0.28,2.16,0.52,3.16,0.8c1,0.26,1.95,0.51,2.82,0.74c1.75,0.45,3.2,0.87,4.22,1.15
			c1.02,0.29,1.6,0.46,1.6,0.46l-0.73,3.26c0,0-0.6-0.1-1.64-0.27c-1.04-0.18-2.53-0.42-4.31-0.75c-0.89-0.16-1.85-0.34-2.87-0.53
			c-1.02-0.18-2.09-0.41-3.2-0.62c-1.11-0.22-2.25-0.45-3.42-0.68l-0.44-0.09l-0.22-0.04l-0.11-0.02l-0.03-0.01
			c-0.05-0.01,0.35,0.07,0.17,0.03h-0.01l-0.05-0.01l-0.89-0.11l-0.45-0.05l-0.11-0.01l-0.01-0.01c-0.05,0,0.36,0.03,0.18,0.02
			h-0.03h-0.06l-0.22-0.01l-0.9-0.03c-2.41-0.1-4.82-0.19-7.08-0.28c-2.25-0.11-4.36-0.22-6.17-0.31c-3.61-0.21-6.01-0.38-6.01-0.38
			L229.42,62.93z"/>
	</g>
	<g>
		<g>
			<path fill="#121F55" d="M230.21,64.46c0-0.43,0.35-0.78,0.78-0.78h28.32c0.59,0,1.08,0.35,1.08,0.78s-0.49,0.78-1.08,0.78h-28.32
				C230.56,65.24,230.21,64.89,230.21,64.46L230.21,64.46z"/>
		</g>
		<g>
			<path fill="#FFFFFF" d="M229.1,64.46c0,0.43,0.38,0.78,0.84,0.78h10.75c0.46,0,0.84-0.35,0.84-0.78s-0.38-0.78-0.84-0.78h-10.75
				C229.48,63.68,229.1,64.03,229.1,64.46z"/>
		</g>
		<g>
			<path fill="#FFFFFF" d="M260.34,49.03v14.28c0,0.63-0.52,1.15-1.15,1.15h-18.84c-0.64,0-1.15-0.52-1.15-1.15V49.03
				c0-0.64,0.52-1.15,1.15-1.15h18.84C259.83,47.87,260.34,48.39,260.34,49.03z"/>
		</g>
		<g>
			<path fill="#FFFFFF" d="M261.22,49.03v14.28c0,0.63-0.52,1.15-1.15,1.15h-18.84c-0.64,0-1.15-0.52-1.15-1.15V49.03
				c0-0.64,0.52-1.15,1.15-1.15h18.84C260.71,47.87,261.22,48.39,261.22,49.03z"/>
		</g>
		<g>
			<path fill="#B9B8F1" d="M247.54,56.17L247.54,56.17c0-0.67,0.54-1.22,1.21-1.22h3.78c0.67,0,1.21,0.55,1.21,1.22l0,0
				c0,0.67-0.54,1.21-1.21,1.21h-3.78C248.09,57.38,247.54,56.83,247.54,56.17z"/>
		</g>
	</g>
	<g>
		<g>
			<path fill="#4CE0C0" d="M225.21,47.63c1.54,0,2.51,0.87,2.93,1.98c0.47-0.98,0.96-1.84,1.36-2.45c0.62-0.95,0.35-2.23-0.6-2.85
				c-0.33-0.22-0.72-0.34-1.12-0.34c-0.7,0-1.35,0.35-1.73,0.94c-0.3,0.45-0.93,1.47-1.6,2.8
				C224.68,47.66,224.94,47.63,225.21,47.63z"/>
		</g>
	</g>
	<g>
		<g>
			<path fill="#F99AB6" d="M238.54,59.59c0.31,0.71,0.34,1.47,0.14,2.16l-4.37,1.93c-0.64-0.31-1.19-0.85-1.5-1.55
				c-0.7-1.58,0.02-3.43,1.6-4.14C235.99,57.29,237.84,58.01,238.54,59.59z"/>
		</g>
	</g>
</g>
<g id="XMLID_54_">
	<g id="XMLID_61_">
		<g>
			<g>
				<g>
					<path fill-rule="evenodd" clip-rule="evenodd" fill="#B9B8F1" d="M157.84,31.94c7.1,0,12.86,4.97,12.86,11.1
						c0,3.68-2.08,6.94-5.27,8.96l1.81,4.58l-4.44-3.3c-1.53,0.55-3.2,0.86-4.96,0.86c-7.1,0-12.86-4.97-12.86-11.1
						C144.98,36.91,150.74,31.94,157.84,31.94z"/>
				</g>
			</g>
		</g>
	</g>
	<g id="XMLID_56_">
		<g id="XMLID_60_">
			<g>
				<g>
					<g>
						<path fill-rule="evenodd" clip-rule="evenodd" fill="#FFFFFF" d="M163.47,45c-0.96,0-1.74-0.79-1.74-1.74
							c0-0.96,0.78-1.75,1.74-1.75c0.96,0,1.74,0.79,1.74,1.75C165.21,44.22,164.43,45,163.47,45z"/>
					</g>
				</g>
			</g>
		</g>
		<g id="XMLID_59_">
			<g>
				<g>
					<g>
						<path fill-rule="evenodd" clip-rule="evenodd" fill="#FFFFFF" d="M157.84,45c-0.96,0-1.74-0.79-1.74-1.74
							c0-0.96,0.78-1.75,1.74-1.75c0.96,0,1.74,0.79,1.74,1.75C159.59,44.22,158.8,45,157.84,45z"/>
					</g>
				</g>
			</g>
		</g>
		<g id="XMLID_58_">
			<g>
				<g>
					<g>
						<path fill-rule="evenodd" clip-rule="evenodd" fill="#FFFFFF" d="M152.22,45c-0.96,0-1.74-0.79-1.74-1.74
							c0-0.96,0.78-1.75,1.74-1.75c0.96,0,1.74,0.79,1.74,1.75C153.96,44.22,153.18,45,152.22,45z"/>
					</g>
				</g>
			</g>
		</g>
	</g>
</g>
<g>
	<g>
		<path fill="#FFFFFF" d="M141.57,20.94c-1.78,0-3.57-0.63-4.93-1.89c-2.06-1.92-5.41-1.92-7.47,0c-0.35,0.33-0.91,0.31-1.24-0.05
			c-0.33-0.35-0.31-0.91,0.05-1.23c2.72-2.52,7.13-2.52,9.85,0c2.06,1.92,5.41,1.92,7.47,0c2.72-2.52,7.13-2.52,9.85,0
			c2.06,1.92,5.41,1.92,7.47,0c2.72-2.52,7.14-2.52,9.85,0c0.35,0.33,0.37,0.88,0.05,1.23c-0.33,0.35-0.88,0.38-1.24,0.05
			c-2.06-1.92-5.41-1.92-7.47,0c-2.72,2.52-7.14,2.52-9.85,0c-2.06-1.92-5.41-1.92-7.47,0C145.13,20.32,143.35,20.94,141.57,20.94z"
			/>
	</g>
</g>
<g>
	<g>
		<path fill="#FFFFFF" d="M297.71,125.8c-1.78,0-3.57-0.63-4.93-1.89c-2.06-1.92-5.41-1.92-7.47,0c-0.35,0.33-0.91,0.31-1.23-0.05
			c-0.33-0.35-0.31-0.91,0.04-1.23c2.72-2.52,7.14-2.52,9.85,0c2.06,1.92,5.41,1.92,7.47,0c2.72-2.52,7.14-2.52,9.85,0
			c2.06,1.92,5.41,1.92,7.47,0c2.72-2.52,7.13-2.52,9.85,0c0.35,0.33,0.37,0.88,0.05,1.23c-0.33,0.35-0.88,0.38-1.24,0.05
			c-2.06-1.92-5.41-1.92-7.47,0c-2.72,2.52-7.14,2.52-9.85,0c-2.06-1.92-5.41-1.92-7.47,0C301.27,125.17,299.49,125.8,297.71,125.8z
			"/>
	</g>
</g>
</svg>
